<svg width="1440" height="140" viewBox="0 0 1440 140" fill="none" xmlns="http://www.w3.org/2000/svg">
<rect width="1440" height="140" fill="#F8F8F8"/>
<path d="M116 107.517C116 118.126 106.152 126.721 94 126.721C81.848 126.721 72 118.126 72 107.517C72 102.224 74.4504 97.4335 78.4112 93.9656C77.317 91.9852 76.7005 89.7582 76.7005 87.4079C76.7005 82.7485 79.1201 78.5822 82.9191 75.8128C81.0543 73.7337 79.9523 71.1123 79.9523 68.269C79.9523 61.4976 86.2403 56 94 56C101.76 56 108.048 61.4894 108.048 68.269C108.048 71.1123 106.938 73.7337 105.081 75.8128C108.88 78.5822 111.299 82.7485 111.299 87.4079C111.299 89.7582 110.683 91.9852 109.589 93.9656C113.55 97.4417 116 102.233 116 107.517Z" fill="#86D3CC"/>
<path d="M93.7689 139.615C93.4837 139.615 93.2526 139.368 93.2526 139.064V68.754C93.2526 68.4499 93.4837 68.2034 93.7689 68.2034C94.054 68.2034 94.2851 68.4499 94.2851 68.754V139.064C94.2851 139.368 94.054 139.615 93.7689 139.615Z" fill="#292929"/>
<path d="M93.4143 111.428C93.2833 111.428 93.1523 111.371 93.0522 111.264L82.5415 100.055C82.3411 99.8414 82.3411 99.4962 82.5415 99.2826C82.7418 99.0689 83.0655 99.0689 83.2658 99.2826L93.7765 110.491C93.9769 110.705 93.9769 111.05 93.7765 111.264C93.6763 111.371 93.5453 111.428 93.4143 111.428Z" fill="#292929"/>
<path d="M93.7688 117.748C93.6378 117.748 93.5068 117.69 93.4066 117.583C93.2063 117.37 93.2063 117.024 93.4066 116.811L106.884 102.438C107.084 102.224 107.408 102.224 107.608 102.438C107.809 102.652 107.809 102.997 107.608 103.211L94.131 117.583C94.0308 117.69 93.8998 117.748 93.7688 117.748Z" fill="#292929"/>
<path d="M93.6532 91.7716C93.5222 91.7716 93.3912 91.7141 93.291 91.6072L85.015 82.7815C84.8147 82.5678 84.8147 82.2227 85.015 82.009C85.2154 81.7953 85.539 81.7953 85.7394 82.009L94.0154 90.8348C94.2157 91.0484 94.2157 91.3936 94.0154 91.6072C93.9152 91.7141 93.7842 91.7716 93.6532 91.7716Z" fill="#292929"/>
<path d="M93.7688 98.5757C93.6378 98.5757 93.5068 98.5182 93.4066 98.4113C93.2063 98.1977 93.2063 97.8525 93.4066 97.6389L103.447 86.9312C103.648 86.7176 103.971 86.7176 104.172 86.9312C104.372 87.1449 104.372 87.49 104.172 87.7037L94.131 98.4113C94.0308 98.5182 93.8998 98.5757 93.7688 98.5757Z" fill="#292929"/>
<path d="M93.6686 73.627C93.5376 73.627 93.4066 73.5695 93.3065 73.4626L88.498 68.3348C88.2977 68.1211 88.2977 67.776 88.498 67.5623C88.6984 67.3487 89.022 67.3487 89.2224 67.5623L94.0308 72.6902C94.2312 72.9038 94.2312 73.249 94.0308 73.4626C93.9306 73.5695 93.7996 73.627 93.6686 73.627Z" fill="#292929"/>
<path d="M93.9692 79.3956C93.8382 79.3956 93.7072 79.3381 93.607 79.2313C93.4067 79.0176 93.4067 78.6725 93.607 78.4588L99.8102 71.8436C100.011 71.6299 100.334 71.6299 100.535 71.8436C100.735 72.0573 100.735 72.4024 100.535 72.6161L94.3314 79.2313C94.2312 79.3381 94.1002 79.3956 93.9692 79.3956Z" fill="#292929"/>
<path d="M1368 107.517C1368 118.126 1358.15 126.721 1346 126.721C1333.85 126.721 1324 118.126 1324 107.517C1324 102.224 1326.45 97.4335 1330.41 93.9656C1329.32 91.9852 1328.7 89.7582 1328.7 87.4079C1328.7 82.7485 1331.12 78.5822 1334.92 75.8128C1333.05 73.7337 1331.95 71.1123 1331.95 68.269C1331.95 61.4976 1338.24 56 1346 56C1353.76 56 1360.05 61.4894 1360.05 68.269C1360.05 71.1123 1358.94 73.7337 1357.08 75.8128C1360.88 78.5822 1363.3 82.7485 1363.3 87.4079C1363.3 89.7582 1362.68 91.9852 1361.59 93.9656C1365.55 97.4417 1368 102.233 1368 107.517Z" fill="#86D3CC"/>
<path d="M1345.77 139.615C1345.48 139.615 1345.25 139.368 1345.25 139.064V68.754C1345.25 68.4499 1345.48 68.2034 1345.77 68.2034C1346.05 68.2034 1346.29 68.4499 1346.29 68.754V139.064C1346.29 139.368 1346.05 139.615 1345.77 139.615Z" fill="#292929"/>
<path d="M1345.41 111.428C1345.28 111.428 1345.15 111.371 1345.05 111.264L1334.54 100.055C1334.34 99.8414 1334.34 99.4962 1334.54 99.2826C1334.74 99.0689 1335.07 99.0689 1335.27 99.2826L1345.78 110.491C1345.98 110.705 1345.98 111.05 1345.78 111.264C1345.68 111.371 1345.55 111.428 1345.41 111.428Z" fill="#292929"/>
<path d="M1345.77 117.748C1345.64 117.748 1345.51 117.69 1345.41 117.583C1345.21 117.37 1345.21 117.024 1345.41 116.811L1358.88 102.438C1359.08 102.224 1359.41 102.224 1359.61 102.438C1359.81 102.652 1359.81 102.997 1359.61 103.211L1346.13 117.583C1346.03 117.69 1345.9 117.748 1345.77 117.748Z" fill="#292929"/>
<path d="M1345.65 91.7716C1345.52 91.7716 1345.39 91.7141 1345.29 91.6072L1337.02 82.7815C1336.81 82.5678 1336.81 82.2227 1337.02 82.009C1337.22 81.7953 1337.54 81.7953 1337.74 82.009L1346.02 90.8348C1346.22 91.0484 1346.22 91.3936 1346.02 91.6072C1345.92 91.7141 1345.78 91.7716 1345.65 91.7716Z" fill="#292929"/>
<path d="M1345.77 98.5757C1345.64 98.5757 1345.51 98.5182 1345.41 98.4113C1345.21 98.1977 1345.21 97.8525 1345.41 97.6389L1355.45 86.9312C1355.65 86.7176 1355.97 86.7176 1356.17 86.9312C1356.37 87.1449 1356.37 87.49 1356.17 87.7037L1346.13 98.4113C1346.03 98.5182 1345.9 98.5757 1345.77 98.5757Z" fill="#292929"/>
<path d="M1345.67 73.627C1345.54 73.627 1345.41 73.5695 1345.31 73.4626L1340.5 68.3348C1340.3 68.1211 1340.3 67.776 1340.5 67.5623C1340.7 67.3487 1341.02 67.3487 1341.22 67.5623L1346.03 72.6902C1346.23 72.9038 1346.23 73.249 1346.03 73.4626C1345.93 73.5695 1345.8 73.627 1345.67 73.627Z" fill="#292929"/>
<path d="M1345.97 79.3956C1345.84 79.3956 1345.71 79.3381 1345.61 79.2313C1345.41 79.0176 1345.41 78.6725 1345.61 78.4588L1351.81 71.8436C1352.01 71.6299 1352.33 71.6299 1352.53 71.8436C1352.73 72.0573 1352.73 72.4024 1352.53 72.6161L1346.33 79.2313C1346.23 79.3381 1346.1 79.3956 1345.97 79.3956Z" fill="#292929"/>
</svg>
