<svg width="120" height="120" viewBox="0 0 120 120" fill="none" xmlns="http://www.w3.org/2000/svg">
<g id="Rooftop_01" clip-path="url(#clip0_355_4764)">
<g id="Group">
<path id="Vector" d="M89.89 0.5H2.81C1.53422 0.5 0.5 1.53422 0.5 2.81V82.33C0.5 83.6058 1.53422 84.64 2.81 84.64H89.89C91.1658 84.64 92.2 83.6058 92.2 82.33V2.81C92.2 1.53422 91.1658 0.5 89.89 0.5Z" fill="white"/>
<path id="Vector_2" d="M25.06 77.14H11.37V63.45H25.06V77.14ZM25.06 35.72H11.37V49.41H25.06V35.72ZM25.06 8H11.37V21.69H25.06V8Z" fill="#99CBDF"/>
<path id="Vector_3" d="M25.06 49.92H11.37C11.09 49.92 10.87 49.7 10.87 49.42V35.73C10.87 35.45 11.09 35.23 11.37 35.23H25.06C25.34 35.23 25.56 35.45 25.56 35.73V49.42C25.56 49.7 25.34 49.92 25.06 49.92ZM11.87 48.92H24.56V36.23H11.87V48.92ZM25.06 22.2H11.37C11.09 22.2 10.87 21.98 10.87 21.7V8C10.87 7.72 11.09 7.5 11.37 7.5H25.06C25.34 7.5 25.56 7.72 25.56 8V21.69C25.56 21.97 25.34 22.19 25.06 22.19V22.2ZM11.87 21.2H24.56V8.5H11.87V21.19V21.2ZM25.06 77.65H11.37C11.09 77.65 10.87 77.43 10.87 77.15V63.46C10.87 63.18 11.09 62.96 11.37 62.96H25.06C25.34 62.96 25.56 63.18 25.56 63.46V77.15C25.56 77.43 25.34 77.65 25.06 77.65ZM11.87 76.65H24.56V63.96H11.87V76.65ZM89.89 85.15H2.81C1.26 85.15 0 83.89 0 82.34V2.81C0 1.26 1.26 0 2.81 0H89.89C91.44 0 92.7 1.26 92.7 2.81V82.33C92.7 83.88 91.44 85.14 89.89 85.14V85.15ZM2.81 1C1.81 1 1 1.81 1 2.81V82.33C1 83.33 1.81 84.14 2.81 84.14H89.89C90.89 84.14 91.7 83.33 91.7 82.33V2.81C91.7 1.81 90.89 1 89.89 1H2.81ZM79.62 70.29C79.62 70.01 79.4 69.79 79.12 69.79H32.96C32.68 69.79 32.46 70.01 32.46 70.29C32.46 70.57 32.68 70.79 32.96 70.79H79.12C79.4 70.79 79.62 70.57 79.62 70.29ZM81.59 42.57C81.59 42.29 81.37 42.07 81.09 42.07H32.96C32.68 42.07 32.46 42.29 32.46 42.57C32.46 42.85 32.68 43.07 32.96 43.07H81.09C81.37 43.07 81.59 42.85 81.59 42.57ZM81.83 14.85C81.83 14.57 81.61 14.35 81.33 14.35H32.96C32.68 14.35 32.46 14.57 32.46 14.85C32.46 15.13 32.68 15.35 32.96 15.35H81.34C81.62 15.35 81.84 15.13 81.84 14.85H81.83Z" fill="#292929"/>
<path id="Vector_4" d="M18.3 72.27C18.18 72.27 18.06 72.23 17.96 72.14L14.28 68.71C14.17 68.61 14.12 68.48 14.12 68.34C14.12 68.22 14.16 68.1 14.25 68C14.44 67.8 14.75 67.79 14.96 67.97L18.29 71.07L26.27 63.09C26.47 62.89 26.78 62.89 26.98 63.09C27.08 63.19 27.13 63.32 27.13 63.44C27.13 63.56 27.08 63.7 26.98 63.79L18.66 72.11C18.56 72.21 18.43 72.26 18.31 72.26L18.3 72.27ZM18.65 44.4L26.97 36.08C27.07 35.98 27.12 35.85 27.12 35.73C27.12 35.61 27.07 35.47 26.97 35.38C26.77 35.18 26.46 35.18 26.26 35.38L18.28 43.36L14.95 40.26C14.75 40.07 14.43 40.08 14.24 40.29C14.15 40.39 14.11 40.51 14.11 40.63C14.11 40.76 14.16 40.9 14.27 41L17.95 44.43C18.05 44.52 18.17 44.56 18.29 44.56C18.41 44.56 18.55 44.51 18.64 44.41L18.65 44.4ZM18.65 16.68L26.97 8.35999C27.07 8.25999 27.12 8.12999 27.12 8.00999C27.12 7.88999 27.07 7.74999 26.97 7.65999C26.77 7.45999 26.46 7.45999 26.26 7.65999L18.28 15.64L14.95 12.54C14.75 12.35 14.43 12.36 14.24 12.57C14.15 12.67 14.11 12.79 14.11 12.91C14.11 13.04 14.16 13.18 14.27 13.28L17.95 16.71C18.05 16.8 18.17 16.84 18.29 16.84C18.41 16.84 18.55 16.79 18.64 16.69L18.65 16.68Z" fill="#007AAB"/>
</g>
<path id="Vector_5" d="M113.94 36.15L71.6601 36.76C68.4201 36.81 65.8501 39.52 65.9801 42.76L67.6601 83.12H108.34L120.19 44.49C121.48 40.3 118.3 36.08 113.92 36.14L113.94 36.15Z" fill="#007AAB"/>
<path id="Vector_6" d="M116.47 63.83C113.88 55.62 109.9 47.4 108.05 44.96C105.53 41.65 98.6401 39.04 98.6401 39.04L98.8401 35.08C100.58 34.05 101.94 32.46 102.51 30.37C102.64 30.63 102.86 30.82 103.13 30.88C103.66 30.99 104.19 30.57 104.32 29.95C104.45 29.33 104.13 28.73 103.6 28.62C103.29 28.56 102.99 28.67 102.76 28.9C102.76 28.85 102.76 28.8 102.77 28.75C103.05 24.39 100.48 21.53 97.1001 21.53C93.7201 21.53 91.4901 25.1 90.9701 29.43C90.4801 33.5 91.4701 36.48 93.6401 36.48C93.7201 36.48 93.8101 36.48 93.8901 36.48L92.8901 39.37C92.1001 39.45 88.9001 39.19 85.3501 41.7C81.8001 44.21 75.8501 50.63 75.8501 50.63L70.0601 55.21L71.8001 56.8L78.4401 59.58L86.4401 54.23L85.0001 55.62L86.2101 73.99L105.73 77.2L105.05 68.65L107.29 68.43C112.31 68.68 117.58 67.35 116.47 63.83ZM108.31 65.21L104.74 64.75L103.73 51.91L109.77 65.2H108.31V65.21Z" fill="#7F4D32"/>
<path id="Vector_7" d="M74.39 85L64.18 68.8C57.81 61.25 48.6 64.07 48.64 72.65L51.72 85.35L53 87.94H74.46" fill="#007AAB"/>
<path id="Vector_8" d="M67.8699 91.89C67.8699 91.89 80.4299 100.89 81.0399 102.08C81.9899 103.93 81.2799 110.99 81.3499 112.55C81.3999 113.49 80.0999 113.63 80.0999 113.63C79.4099 113.78 79.0999 113.81 78.4799 113.81C77.7399 113.81 77.1599 113.19 77.2099 112.45C77.2999 111.23 77.4099 108.36 77.4299 107.97C77.5499 104.7 61.4399 96.24 61.4399 96.24" fill="#7F4D32"/>
<path id="Vector_9" d="M68.17 103.3C68.17 103.3 67.77 117.3 65.74 117.95C63.2 118.76 59.74 116.95 59.74 116.95C59.74 116.95 53.28 118.7 53.51 118.38C53.74 118.06 60.96 115.23 61.97 113.47C64.22 109.53 61.1 103.3 61.1 103.3H68.18H68.17Z" fill="#7F4D32"/>
<path id="Vector_10" d="M94.3101 68.51C94.5601 68.59 94.8101 68.67 95.0401 68.74L94.3101 68.51Z" fill="#FDD1BF"/>
<path id="Vector_11" d="M63.8101 69.03C59.0001 68.63 55.0501 72.5 55.1201 77.14L49.9201 77.64C44.2101 78.19 42.2001 85.51 46.8301 88.9L58.6101 97.52L60.1901 106.49H74.2L71.06 93.24L71.49 90.88L70.4701 90.76L70.38 90.39L89.6201 91.89L90.1501 90.39L92.9101 90.93C98.8401 92.08 104.35 87.54 104.34 81.5L105.01 74.69L63.8001 69.04L63.8101 69.03Z" fill="#CA6F20"/>
<path id="Vector_12" d="M81 92.43L66.64 119.06C66.51 119.3 66.6 119.61 66.84 119.74C66.92 119.78 67 119.8 67.08 119.8C67.26 119.8 67.43 119.71 67.52 119.54L82.09 92.52C81.71 92.54 81.35 92.51 81 92.44V92.43Z" fill="#292929"/>
<path id="Vector_13" d="M108.32 62L115.04 59.64C115.04 59.64 109.67 45.8 107.01 43.83C104.35 41.86 103.71 41.48 103.71 41.48L100.15 39.67C100.15 39.67 96.24 43.75 92.59 43.13C88.95 42.5 89.17 39.96 89.17 39.96L88.4 40.39L88.47 40.08C84.72 40.76 77.92 48.48 77.92 48.48C75.29 50.85 74.45 53.61 74.45 53.61L76.93 61.1L78.44 59.59L81.3 57.72L84.22 56.07C84.14 61.82 84.47 71.61 84.47 71.61L93.62 74.15L105.36 77.41L104.34 60.71L104.07 52.7L108.31 62.02L108.32 62Z" fill="white"/>
<path id="Vector_14" d="M111.29 65.38L94.17 64.43V64.47L92.94 64.29C92.72 64.26 92.52 64.16 92.35 64.02C91.61 63.39 89.43 61.57 88.21 61.26C86.72 60.88 85.23 61.39 84.59 62.21C84.18 62.74 84.96 63.86 85.57 64.58C85.91 64.98 86.48 65.11 86.96 64.89C86.96 64.89 87.05 64.85 87.1 64.84L87.53 64.7C88.01 64.55 88.53 64.72 88.83 65.12C89.38 65.89 90.39 67.08 91.61 67.58C92.28 67.86 93.27 68.19 94.18 68.48L94.33 68.53L95.06 68.76L95.24 68.81L109.53 70.74C109.63 70.77 109.73 70.79 109.84 70.79C114.78 70.93 118.29 68.48 116.49 63.85" fill="#7F4D32"/>
<path id="Vector_15" d="M69.4899 115.27C69.6399 116.44 69.68 117.43 69.68 118.07C69.68 118.52 69.18 118.74 69.18 118.74C69 118.82 68.7 118.88 68.51 118.88H50.1199C49.9299 118.88 49.62 118.82 49.45 118.74L49.09 118.39C49.01 118.21 48.95 117.91 48.95 117.72V117.41C48.95 117.22 49 116.91 49.06 116.72C49.06 116.72 49.4399 115.55 50.1899 115.27C52.1099 114.54 55.7899 113.12 57.8899 112.12C59.86 111.18 61.0399 110.51 61.5999 110.16C61.8599 110 62.0999 110.06 62.0999 110.06C62.2899 110.11 62.53 110.2 62.6399 110.26C62.7499 110.32 62.94 110.5 63.06 110.65C63.06 110.65 63.33 110.97 63.2 111.34C63.06 111.77 63.4599 112.13 63.4599 112.13C63.5999 112.26 63.87 112.42 64.05 112.48L64.2699 112.55C64.4499 112.61 64.7599 112.68 64.9499 112.7L65.8099 112.61C65.9899 112.55 66.2799 112.43 66.4499 112.33L67.11 111.95C67.28 111.85 67.5699 111.77 67.7699 111.77C67.7699 111.77 68.6699 111.75 68.8399 112.35C69.0599 113.11 69.32 114.17 69.4599 115.26L69.4899 115.27ZM86.2799 100.76C85.6699 100.56 84.7199 100.29 83.5599 100.07C82.4699 99.86 81.3899 99.78 80.5999 99.75C79.9699 99.73 79.72 100.59 79.72 100.59C79.66 100.78 79.65 101.08 79.69 101.27L79.8399 102.02C79.8799 102.21 79.91 102.52 79.91 102.72L79.72 103.57C79.64 103.75 79.48 104.02 79.37 104.17L79.23 104.35C79.12 104.51 78.88 104.71 78.72 104.81C78.72 104.81 78.25 105.08 77.8899 104.81C77.58 104.58 77.19 104.73 77.19 104.73C77.01 104.8 76.78 104.93 76.69 105.01C76.6 105.09 76.43 105.3 76.33 105.46C76.33 105.46 76.19 105.67 76.26 105.97C76.41 106.61 76.6799 107.94 76.9599 110.11C77.25 112.43 77.46 116.36 77.55 118.41C77.59 119.21 78.58 119.94 78.58 119.94C78.74 120.05 79.0099 120.2 79.1999 120.26L79.4899 120.36C79.6699 120.42 79.9799 120.45 80.1699 120.43L80.61 120.2C80.74 120.06 80.9 119.79 80.9599 119.61L86.6999 102.14C86.7599 101.96 86.7899 101.65 86.7699 101.46C86.7699 101.46 86.7099 100.91 86.29 100.77L86.2799 100.76Z" fill="white"/>
<path id="Vector_16" d="M75.04 32.83C74.75 33.85 75.31 32.46 74.64 32.1C73.74 31.62 73.28 34.36 73.19 34.97C72.72 38.11 73.27 40.19 73.13 40.91C73.08 41.17 71.19 49.59 70.14 53.97C69.8 55.41 70.65 56.86 72.07 57.25C73.32 57.6 77.37 56.86 77.37 56.86C77.32 56.84 76.96 43.48 77.58 41.49C77.78 40.86 79.53 38.65 79.77 37.95C80.05 37.12 80.23 36.86 80.06 36.39C80.06 36.37 80.03 36.37 80.01 36.36C79.81 36.28 79.52 36.64 79.52 36.64C79.52 36.64 82.24 29.31 80.96 28.91C80.15 28.64 79.6 30.74 79.1 32.49C79.64 30.67 79.27 30.55 78.53 30.2C77.98 30.2 77.5 30.74 76.82 32.63C77.47 31.07 77.36 30.94 76.54 30.58C75.6 30.34 75.29 31.89 75.05 32.83H75.04Z" fill="#7F4D32"/>
<g id="Group_2">
<path id="Vector_17" d="M89.2899 70.75H89.2599L82.3299 54.23H58.5399C57.9299 54.23 57.5199 54.92 57.7599 55.54L63.5899 70.75H63.4399V73.28H99.3199V70.75H89.2899Z" fill="#FAFAFA"/>
<path id="Vector_18" d="M99.32 70.25H89.5899L82.79 54.04C82.71 53.85 82.53 53.73 82.33 53.73H58.54C58.1 53.73 57.71 53.94 57.45 54.32C57.17 54.73 57.11 55.25 57.29 55.72L62.98 70.55C62.95 70.61 62.9399 70.68 62.9399 70.75V73.28C62.9399 73.56 63.1599 73.78 63.4399 73.78H99.32C99.5999 73.78 99.82 73.56 99.82 73.28V70.75C99.82 70.47 99.5999 70.25 99.32 70.25ZM58.28 54.89C58.32 54.83 58.41 54.74 58.54 54.74H82L88.51 70.26H63.93L58.22 55.37C58.15 55.18 58.2 55 58.27 54.9L58.28 54.89ZM63.9399 71.32H88.79V72.78H63.9399V71.32ZM98.82 72.78H89.79V71.25H98.82V72.78Z" fill="#292929"/>
</g>
<path id="Vector_19" d="M70.79 92.29H105.41L111.58 72.64C111.58 72.64 110.12 76.77 108.23 76.42C107.57 76.3 105.48 75.03 103.04 73.43C97.6 69.86 90.26 71.71 87.18 77.44C83.96 83.43 80.13 89.59 78.01 89.59C73.89 89.59 70.15 89.43 70.15 89.43" fill="#007AAB"/>
<g id="Group_3">
<path id="Vector_20" d="M93.0999 49.61C93.8099 49.61 94.3799 49.04 94.3799 48.33C94.3799 47.62 93.8099 47.05 93.0999 47.05C92.3899 47.05 91.8199 47.62 91.8199 48.33C91.8199 49.04 92.3899 49.61 93.0999 49.61ZM93.0999 48.04C93.2599 48.04 93.3899 48.17 93.3899 48.33C93.3899 48.49 93.2599 48.62 93.0999 48.62C92.9399 48.62 92.8099 48.49 92.8099 48.33C92.8099 48.17 92.9399 48.04 93.0999 48.04Z" fill="#292929"/>
<path id="Vector_21" d="M92.74 58.8C93.45 58.8 94.02 58.23 94.02 57.52C94.02 56.81 93.45 56.24 92.74 56.24C92.03 56.24 91.46 56.81 91.46 57.52C91.46 58.23 92.03 58.8 92.74 58.8ZM92.74 57.23C92.9 57.23 93.03 57.36 93.03 57.52C93.03 57.68 92.9 57.81 92.74 57.81C92.58 57.81 92.45 57.68 92.45 57.52C92.45 57.36 92.58 57.23 92.74 57.23Z" fill="#292929"/>
<path id="Vector_22" d="M92.74 53.95C93.45 53.95 94.02 53.38 94.02 52.67C94.02 51.96 93.45 51.39 92.74 51.39C92.03 51.39 91.46 51.96 91.46 52.67C91.46 53.38 92.03 53.95 92.74 53.95ZM92.74 52.38C92.9 52.38 93.03 52.51 93.03 52.67C93.03 52.83 92.9 52.96 92.74 52.96C92.58 52.96 92.45 52.83 92.45 52.67C92.45 52.51 92.58 52.38 92.74 52.38Z" fill="#292929"/>
<path id="Vector_23" d="M106.09 91.79L112.06 72.78C112.14 72.52 112 72.24 111.74 72.16C111.49 72.07 111.2 72.21 111.11 72.47C110.68 73.69 109.42 76.12 108.33 75.92C108.1 75.88 107.15 75.5 103.33 73C100.61 71.22 97.25 70.66 94.0999 71.46C90.9599 72.26 88.2799 74.35 86.75 77.19C80.9799 87.92 78.7199 89.08 78.0199 89.08C74.6499 89.08 71.5299 88.97 70.5599 88.93L68.83 81.64C68.77 81.37 68.49 81.19 68.23 81.26C67.96 81.32 67.8 81.59 67.86 81.86L73.58 105.97H60.6199L55.7299 78.33C55.6799 78.06 55.42 77.87 55.15 77.92C54.88 77.97 54.7 78.23 54.74 78.5L57.9 96.36L47.1199 88.47C44.7599 86.75 44.47 84.16 44.97 82.31C45.48 80.46 47.0499 78.39 49.9599 78.11L55.09 77.56C55.07 77.22 55.0899 76.89 55.1199 76.55L50.2299 77.08L49.1399 72.57C49.1399 69.05 50.8 66.34 53.58 65.31C56.49 64.24 59.8599 65.23 62.6399 67.85C62.5399 67.38 62.4999 66.9 62.5099 66.43C59.5999 64.07 56.21 63.27 53.24 64.37C50.03 65.55 48.13 68.64 48.15 72.63C48.15 72.67 48.1499 72.71 48.1599 72.75L49.24 77.23C46.69 77.71 44.7099 79.5 44.0099 82.05C43.2499 84.82 44.2199 87.59 46.5299 89.28L58.15 97.78L59.7 106.55C59.74 106.79 59.9499 106.96 60.1899 106.96H61.88C62.07 107.77 62.2199 108.66 62.2599 109.55C61.9499 109.5 61.6299 109.55 61.3499 109.72C60.8299 110.04 59.6599 110.71 57.6899 111.65C55.6099 112.64 51.99 114.04 50.02 114.78C49.08 115.13 48.45 116.04 48.45 117.04V118.05C48.45 118.77 49.04 119.36 49.77 119.36H68.86C69.22 119.36 69.55 119.22 69.8 118.97C70.05 118.72 70.18 118.39 70.18 118.04C70.18 117.41 70.14 116.39 69.98 115.18C69.83 114.02 69.5499 112.91 69.3399 112.19C69.2099 111.76 68.9 111.41 68.48 111.24C68.38 111.2 68.27 111.17 68.16 111.15C68.29 109.96 68.41 108.57 68.51 106.96H74.1999C74.3499 106.96 74.4999 106.89 74.5899 106.77C74.6799 106.65 74.72 106.49 74.68 106.35L74.32 104.85C74.8699 105.3 75.37 105.72 75.76 106.12C75.9 106.74 76.17 108.05 76.44 110.14C76.73 112.42 76.9299 116.29 77.0199 118.4C77.0599 119.4 77.7299 120.28 78.6699 120.59L79.6299 120.91C79.7599 120.95 79.9 120.98 80.04 120.98C80.24 120.98 80.4399 120.93 80.6299 120.84C80.9499 120.68 81.18 120.41 81.29 120.07L87.25 101.94C87.36 101.6 87.3299 101.24 87.1699 100.92C87.0099 100.61 86.74 100.38 86.41 100.27C85.81 100.07 84.8399 99.79 83.6299 99.56C82.4799 99.34 81.3399 99.26 80.5899 99.23C80.1499 99.23 79.7099 99.4 79.4199 99.75C79.3899 99.78 79.3699 99.82 79.3499 99.86C77.32 98.2 74.24 95.9 71.76 94.09L71.4499 92.77H105.4C105.4 92.77 105.41 92.77 105.42 92.77L116.48 118.42C116.59 118.67 116.89 118.79 117.14 118.68C117.39 118.57 117.51 118.28 117.4 118.02L106.08 91.78L106.09 91.79ZM67.5 106.99C67.4 108.58 67.26 110.07 67.11 111.41L65.9199 112.09C65.5699 112.29 65.15 112.33 64.7799 112.2L63.9 111.91C63.82 111.88 63.75 111.83 63.7099 111.75C63.6699 111.67 63.6699 111.59 63.6899 111.51C63.8599 111 63.68 110.44 63.27 110.1C63.28 109.02 63.1299 107.96 62.91 106.99H67.5ZM68.3899 112.5C68.59 113.19 68.86 114.24 69 115.34C69.15 116.51 69.19 117.47 69.19 118.08C69.19 118.16 69.1599 118.24 69.0999 118.3C69.0399 118.36 68.96 118.4 68.87 118.4H49.7799C49.5999 118.4 49.4599 118.26 49.4599 118.09V117.08C49.4599 116.5 49.83 115.97 50.38 115.76C52.36 115.01 56.0099 113.6 58.1199 112.59C60.1299 111.63 61.34 110.94 61.88 110.61C61.93 110.58 61.99 110.56 62.0499 110.56C62.1099 110.56 62.16 110.57 62.2099 110.6L62.61 110.83C62.74 110.91 62.7999 111.06 62.75 111.2C62.6399 111.53 62.67 111.89 62.82 112.2C62.9799 112.52 63.25 112.75 63.59 112.86L64.47 113.15C65.12 113.36 65.8299 113.29 66.4199 112.95L67.69 112.22C67.82 112.15 67.97 112.14 68.11 112.19C68.24 112.24 68.3399 112.36 68.3799 112.49L68.3899 112.5ZM80.4 102.27L80.11 100.83C80.08 100.68 80.11 100.54 80.2099 100.42C80.2999 100.31 80.45 100.24 80.58 100.25C81.3 100.28 82.38 100.35 83.47 100.56C84.63 100.78 85.5499 101.05 86.1299 101.23C86.2099 101.26 86.2699 101.31 86.3099 101.38C86.3499 101.46 86.36 101.55 86.33 101.63L80.37 119.76C80.34 119.84 80.29 119.91 80.2099 119.95C80.1399 119.99 80.05 119.99 79.97 119.97L79.01 119.65C78.46 119.47 78.07 118.95 78.04 118.36C77.95 116.24 77.7399 112.33 77.4499 110.02C77.1799 107.93 76.9199 106.59 76.7399 105.83C76.7099 105.71 76.7499 105.59 76.8399 105.51L77.19 105.2C77.25 105.15 77.33 105.12 77.4 105.12C77.46 105.12 77.53 105.14 77.58 105.18C77.86 105.39 78.21 105.48 78.55 105.43C78.9 105.38 79.2099 105.19 79.4199 104.91L79.97 104.16C80.38 103.61 80.5299 102.91 80.3899 102.24L80.4 102.27ZM79.12 100.95C79.12 100.95 79.12 101 79.12 101.03L79.41 102.47C79.49 102.86 79.41 103.27 79.16 103.59L78.61 104.34C78.56 104.41 78.48 104.46 78.4 104.47C78.32 104.49 78.2399 104.47 78.1699 104.41C77.6799 104.04 76.98 104.07 76.51 104.48L76.16 104.79C76.08 104.86 76.02 104.94 75.97 105.02C75.39 104.47 74.7099 103.91 73.9599 103.34L72.1299 95.62C74.9799 97.72 77.57 99.69 79.11 100.96L79.12 100.95ZM105.05 91.79H71.23L70.79 89.94C71.63 89.98 74.5599 90.09 78.0199 90.09C78.7399 90.09 80.9499 90.09 87.6299 77.67C89.0499 75.03 91.4299 73.17 94.3399 72.43C97.2199 71.7 100.29 72.21 102.77 73.84C106.72 76.42 107.72 76.83 108.14 76.91C108.78 77.03 109.38 76.77 109.89 76.34L105.04 91.8L105.05 91.79Z" fill="#292929"/>
<path id="Vector_24" d="M119.6 38.43C118.25 36.63 116.22 35.65 113.93 35.65L99.2999 35.86L99.3299 35.35C100.89 34.35 102.1 32.94 102.74 31.27C102.83 31.31 102.93 31.35 103.03 31.37C103.82 31.54 104.63 30.94 104.81 30.05C104.93 29.46 104.76 28.89 104.4 28.52C104.47 28.38 104.54 28.24 104.6 28.09C104.61 28.06 104.62 28.02 104.63 27.99C104.85 26.8 104.83 25.72 104.63 24.74C104.98 24.74 105.3 24.56 105.56 24.42C105.73 24.33 105.92 24.22 106.03 24.21C106.14 24.19 106.34 24.28 106.5 24.34C106.86 24.47 107.3 24.64 107.74 24.47C108.16 24.3 108.37 23.89 108.54 23.56C108.63 23.39 108.73 23.19 108.82 23.11C108.91 23.04 109.13 22.99 109.32 22.94C109.68 22.86 110.13 22.75 110.39 22.38C110.66 22 110.61 21.53 110.56 21.15C110.54 20.97 110.51 20.75 110.54 20.66C110.57 20.56 110.72 20.4 110.85 20.25C111.1 19.97 111.42 19.63 111.42 19.16C111.42 18.69 111.1 18.34 110.84 18.06C110.71 17.92 110.57 17.76 110.53 17.66C110.5 17.57 110.52 17.36 110.53 17.18C110.57 16.79 110.61 16.31 110.31 15.93C110.01 15.55 109.53 15.48 109.15 15.42C108.97 15.39 108.76 15.36 108.68 15.31C108.59 15.25 108.47 15.07 108.36 14.91C108.15 14.59 107.89 14.2 107.43 14.09C106.98 13.98 106.57 14.21 106.24 14.39C106.07 14.48 105.88 14.59 105.77 14.6C105.67 14.61 105.46 14.53 105.3 14.47C104.94 14.34 104.5 14.17 104.06 14.34C103.64 14.51 103.43 14.92 103.26 15.24C103.17 15.42 103.07 15.62 102.98 15.69C102.89 15.76 102.67 15.81 102.48 15.86C102.1 15.95 101.67 16.05 101.41 16.42C101.14 16.81 101.19 17.28 101.24 17.65C101.26 17.83 101.29 18.05 101.26 18.14C101.23 18.25 101.08 18.41 100.95 18.55C100.7 18.83 100.38 19.17 100.38 19.64C100.38 20.06 100.63 20.38 100.87 20.64C100.82 20.63 100.78 20.61 100.74 20.6C99.8399 20.42 98.9999 20.45 98.2199 20.64C97.5499 20.62 96.8399 20.67 96.1699 20.89C95.5799 21.08 94.9699 21.44 94.4199 21.83C94.0199 22.08 93.6399 22.38 93.2899 22.74C92.8699 23.11 92.5999 23.4 92.5699 23.43C92.4899 23.52 92.4499 23.64 92.4499 23.75C91.4499 25.18 90.7499 27.1 90.4799 29.37C90.1299 32.32 90.5299 34.71 91.5799 35.98L80.4699 36.14C80.4199 36.08 80.3699 36.01 80.2999 35.97C81.0099 33.94 82.2199 30.1 81.6399 28.92C81.4899 28.62 81.2699 28.5 81.1199 28.45C80.8699 28.36 80.6099 28.39 80.3699 28.51C79.9399 28.74 79.6199 29.28 79.3199 30.09C79.1599 29.97 78.9699 29.86 78.7399 29.76C78.6699 29.73 78.5999 29.71 78.5299 29.71C78.0199 29.68 77.6399 29.97 77.2899 30.46C77.1299 30.34 76.9199 30.22 76.6499 30.11C76.3299 30.03 76.0199 30.07 75.7499 30.23C75.2999 30.5 75.0299 31.06 74.8399 31.65C74.5699 31.52 74.2899 31.52 74.0299 31.65C73.2699 32.03 72.8799 33.63 72.6999 34.9C72.6299 35.38 72.5899 35.83 72.5499 36.26H71.6599C69.9499 36.3 68.3699 36.99 67.1999 38.23C66.0299 39.47 65.4199 41.09 65.4899 42.79L65.9699 54.38C66.3099 54.38 66.6499 54.42 66.9799 54.49L66.4899 42.76C66.4299 41.33 66.9399 39.97 67.9199 38.92C68.8999 37.88 70.2399 37.29 71.6699 37.27H72.5099C72.4999 38 72.5199 38.65 72.5599 39.19C72.5699 39.39 72.5899 39.58 72.5999 39.75C72.6399 40.23 72.6699 40.64 72.6399 40.82C72.5799 41.12 70.6799 49.57 69.6599 53.86C69.6299 53.99 69.6199 54.13 69.6099 54.26C69.8699 54.22 70.1399 54.2 70.4299 54.2C70.4999 54.2 70.5599 54.2 70.6299 54.2C70.6299 54.16 70.6299 54.12 70.6499 54.09C71.6999 49.66 73.5999 41.26 73.6399 41C73.6999 40.69 73.6599 40.26 73.6099 39.66C73.5299 38.62 73.3999 37.05 73.6999 35.04C73.9299 33.51 74.3099 32.64 74.4199 32.54C74.4999 32.58 74.5199 32.83 74.4899 33C74.4899 33.02 74.4899 33.03 74.4899 33.05C74.4499 33.31 74.4899 33.54 74.7999 33.65C75.0499 33.74 75.3199 33.62 75.4299 33.38C75.4499 33.33 75.4799 33.24 75.4899 33.13C75.4999 33.08 75.5199 33.02 75.5399 32.95C75.5399 32.95 75.5399 32.95 75.5399 32.94L75.5899 32.75C75.7199 32.23 75.9599 31.26 76.2799 31.07C76.3099 31.05 76.3499 31.04 76.3499 31.03C76.4499 31.07 76.7099 31.19 76.7499 31.23C76.7699 31.3 76.7299 31.47 76.6399 31.73C76.5499 31.95 76.4599 32.19 76.3599 32.45C76.2699 32.7 76.3999 32.99 76.6499 33.09C76.8999 33.19 77.1899 33.07 77.2899 32.82C77.3999 32.57 77.4899 32.34 77.5599 32.13C77.9799 31.12 78.2699 30.79 78.4599 30.72C78.8799 30.92 78.9999 31.03 78.7499 31.95C78.7399 31.99 78.7299 32.03 78.7199 32.07L78.6399 32.36C78.5599 32.62 78.7199 32.9 78.9799 32.98C79.2499 33.06 79.5199 32.91 79.5999 32.64C79.6299 32.54 79.6499 32.45 79.6799 32.36V32.34C79.9299 31.48 80.4299 29.75 80.7999 29.43C81.0299 30.14 80.2699 33.26 79.0799 36.47C78.9999 36.7 79.0799 36.95 79.2999 37.08C79.3799 37.13 79.4599 37.14 79.5599 37.15C79.5399 37.22 79.5099 37.29 79.4799 37.38L79.3299 37.81C79.2299 38.09 78.7099 38.87 78.2799 39.49C77.6499 40.42 77.2499 41 77.1399 41.37C76.8699 42.26 76.7399 45.14 76.7599 49.94C76.7599 51.76 76.7799 53.1 76.7999 54.12C76.7999 54.12 76.7999 54.17 76.7999 54.19C76.8799 54.19 76.9799 54.19 77.0599 54.18C77.3199 54.22 77.5799 54.26 77.8199 54.33C77.8199 54.28 77.8199 54.23 77.8199 54.18C77.7899 52.84 77.7699 51.14 77.7599 49.42C77.7599 49.41 77.7599 49.39 77.7599 49.38C79.6899 47.39 83.2599 43.81 85.6699 42.11C86.5999 41.45 87.4999 41.01 88.3399 40.69C88.4699 40.64 88.5999 40.6 88.7399 40.55C88.9099 41.47 89.6299 43.13 92.5199 43.63C92.8099 43.68 93.0999 43.7 93.3899 43.7C96.4399 43.7 99.3699 41.14 100.26 40.29L103.48 41.93C103.55 41.97 104.27 42.43 106.73 44.25C108.74 45.73 112.78 55.23 114.41 59.36L108.61 61.4L104.21 51.73C104.11 51.51 103.86 51.39 103.63 51.45C103.4 51.51 103.24 51.73 103.25 51.97L103.87 60.75L104.1 64.49L103.74 64.47L94.2199 63.94C94.2199 63.94 94.1299 63.94 94.0799 63.96L93.0299 63.81C92.9099 63.79 92.7899 63.74 92.6899 63.66C91.8199 62.91 89.6499 61.13 88.3499 60.8C88.0699 60.73 87.7999 60.69 87.5199 60.67C87.3999 60.67 87.2899 60.67 87.1699 60.67C87.0099 60.67 86.8599 60.67 86.6999 60.69C86.5499 60.71 86.4199 60.74 86.2699 60.77C86.1499 60.8 86.0299 60.82 85.9199 60.85C85.7699 60.89 85.6399 60.95 85.4999 61.01C85.4399 61.04 85.3699 61.05 85.3099 61.08C85.3099 61.08 85.3099 61.08 85.3099 61.09C85.2199 61.14 85.1099 61.17 85.0299 61.22C85.2699 61.47 85.4699 61.74 85.6499 62.03C85.7599 61.97 85.8999 61.92 86.0299 61.87C86.0999 61.85 86.1599 61.82 86.2299 61.8C86.3499 61.77 86.4699 61.74 86.5999 61.72C86.6699 61.71 86.7499 61.69 86.8199 61.68C86.9599 61.66 87.0999 61.66 87.2499 61.66C87.3199 61.66 87.3899 61.66 87.4599 61.66C87.6799 61.67 87.8999 61.7 88.1199 61.76C89.0199 61.99 90.7399 63.28 92.0599 64.41C92.2999 64.62 92.5899 64.75 92.9099 64.8L94.1399 64.98C94.2199 64.98 94.2799 64.98 94.3499 64.96L111.3 65.9C111.57 65.94 111.81 65.7 111.83 65.43C111.85 65.15 111.63 64.92 111.36 64.9L105.13 64.55L104.89 60.69L104.47 54.68L107.91 62.24C107.99 62.42 108.17 62.53 108.37 62.53C108.42 62.53 108.48 62.53 108.54 62.5L115.19 60.16C115.38 60.58 115.52 61.01 115.6 61.47L120.75 44.67C121.41 42.52 121.01 40.25 119.66 38.45L119.6 38.43ZM91.4699 29.49C91.6899 27.62 92.2899 25.75 93.2399 24.35C93.6699 24.44 94.3399 24.55 95.0299 24.55C95.5899 24.55 96.1599 24.48 96.6099 24.26C96.7499 24.19 96.9099 24.11 97.0799 24.04C97.4799 25.27 98.1899 26.66 99.5499 27.74C100.49 28.49 101.04 30.93 101.17 31.8C101.18 31.89 101.22 31.96 101.27 32.03C99.6499 34.74 96.3999 36 93.6499 36V35.96H93.3299C92.9699 35.89 92.6599 35.71 92.3899 35.41C91.4899 34.4 91.1499 32.19 91.4699 29.5V29.49ZM87.6899 39.85C86.8599 40.19 85.9799 40.64 85.0799 41.29C82.8899 42.84 79.7899 45.87 77.7499 47.94C77.7499 47.6 77.7499 47.26 77.7499 46.92C77.7499 46.84 77.7499 46.75 77.7499 46.67C77.7499 46.43 77.7499 46.19 77.7599 45.95C77.7599 45.83 77.7599 45.72 77.7599 45.61C77.7599 45.42 77.7599 45.22 77.7699 45.04C77.7699 44.91 77.7699 44.79 77.7799 44.67C77.7799 44.51 77.7899 44.35 77.7999 44.19C77.7999 44.07 77.8099 43.95 77.8199 43.83C77.8199 43.69 77.8299 43.55 77.8399 43.41C77.8399 43.3 77.8499 43.2 77.8599 43.1C77.8599 42.97 77.8799 42.85 77.8899 42.74C77.8899 42.65 77.9099 42.56 77.9099 42.49C77.9199 42.37 77.9399 42.27 77.9499 42.17C77.9499 42.11 77.9699 42.05 77.9699 42C77.9899 41.86 78.0199 41.74 78.0499 41.65C78.1299 41.41 78.6699 40.62 79.0599 40.04C79.6999 39.1 80.0999 38.51 80.2299 38.12L80.3699 37.71C80.4499 37.5 80.5099 37.31 80.5499 37.13L93.1799 36.95L92.5099 38.88C92.5099 38.88 92.4699 38.88 92.4399 38.88C92.3199 38.88 92.1799 38.88 92.0199 38.9C91.9299 38.9 91.8299 38.91 91.7299 38.92C91.6599 38.92 91.5899 38.93 91.5099 38.94C91.0499 38.98 90.4999 39.04 89.8799 39.17C89.8799 39.17 89.8699 39.17 89.8599 39.17C89.1899 39.31 88.4599 39.52 87.6699 39.85H87.6899ZM92.6699 42.64C90.1799 42.21 89.7399 40.84 89.6699 40.26C90.4599 40.06 91.1499 39.98 91.6999 39.94C91.7399 39.94 91.7799 39.94 91.8199 39.94C91.9299 39.94 92.0299 39.93 92.1199 39.92C92.2499 39.92 92.3799 39.91 92.4899 39.91C92.6799 39.91 92.8299 39.9 92.9399 39.89C93.0299 39.89 93.1099 39.84 93.1699 39.8C93.1899 39.79 93.1999 39.78 93.2199 39.76C93.2799 39.71 93.3199 39.65 93.3499 39.57C93.3499 39.57 93.3499 39.57 93.3599 39.55V39.54L94.2499 36.96C95.6999 36.88 97.0699 36.53 98.2799 35.94L98.1299 39.04C98.1199 39.26 98.2499 39.46 98.4499 39.53C98.4599 39.53 98.7599 39.65 99.2299 39.85C98.0799 40.88 95.2499 43.1 92.6599 42.66L92.6699 42.64ZM119.73 44.36L115.27 58.89C114.21 56.21 109.76 45.26 107.29 43.44C104.64 41.48 103.98 41.08 103.95 41.06H103.94C103.94 41.06 103.94 41.06 103.92 41.05C103.92 41.05 101.98 40.02 101.99 40.01C100.74 39.39 99.6799 38.94 99.1499 38.73L99.2399 36.88L113.94 36.67C113.94 36.67 114 36.67 114.03 36.67C115.92 36.67 117.65 37.54 118.79 39.05C119.95 40.59 120.29 42.53 119.72 44.37L119.73 44.36Z" fill="#292929"/>
<path id="Vector_25" d="M109.83 70.27C109.77 70.27 109.71 70.26 109.57 70.22L95.3599 68.31L94.3099 67.98C93.5499 67.74 92.4999 67.39 91.7799 67.1C90.6599 66.64 89.6899 65.46 89.2199 64.81C88.7999 64.23 88.0499 63.98 87.3599 64.2L86.9299 64.34C86.8599 64.36 86.7999 64.39 86.7399 64.42C86.7199 64.43 86.6899 64.43 86.6599 64.44C86.7499 64.75 86.8199 65.08 86.8499 65.41C86.9799 65.38 87.1099 65.35 87.2299 65.3L87.6599 65.16C87.9399 65.07 88.2299 65.16 88.3999 65.4C89.0599 66.31 90.1099 67.5 91.3899 68.03C91.9799 68.27 92.8599 68.58 94.0099 68.94L94.8799 69.21L109.34 71.19C109.49 71.24 109.64 71.26 109.78 71.27C109.91 71.27 110.05 71.27 110.18 71.27C113.14 71.27 115.48 70.35 116.63 68.72C117.29 67.78 117.88 66.14 116.92 63.64C116.82 63.38 116.53 63.26 116.27 63.35C116.01 63.45 115.88 63.74 115.98 64C116.63 65.67 116.57 67.06 115.81 68.14C114.8 69.57 112.64 70.36 109.81 70.26L109.83 70.27Z" fill="#292929"/>
</g>
</g>
<defs>
<clipPath id="clip0_355_4764">
<rect width="121" height="121" fill="white"/>
</clipPath>
</defs>
</svg>
