<svg width="120" height="120" viewBox="0 0 120 120" fill="none" xmlns="http://www.w3.org/2000/svg">
<g id="Rooftop_02" clip-path="url(#clip0_355_4798)">
<g id="Group">
<path id="Vector" d="M118.07 30.48H30.36C29.5702 30.48 28.93 31.1202 28.93 31.91V52.53C28.93 53.3198 29.5702 53.96 30.36 53.96H118.07C118.86 53.96 119.5 53.3198 119.5 52.53V31.91C119.5 31.1202 118.86 30.48 118.07 30.48Z" fill="white"/>
<path id="Vector_2" d="M118.07 0.5H30.36C29.5702 0.5 28.93 1.14023 28.93 1.93V22.55C28.93 23.3398 29.5702 23.98 30.36 23.98H118.07C118.86 23.98 119.5 23.3398 119.5 22.55V1.93C119.5 1.14023 118.86 0.5 118.07 0.5Z" fill="white"/>
<path id="Vector_3" d="M118.07 60.46H30.36C29.5702 60.46 28.93 61.1002 28.93 61.89V82.51C28.93 83.2998 29.5702 83.94 30.36 83.94H118.07C118.86 83.94 119.5 83.2998 119.5 82.51V61.89C119.5 61.1002 118.86 60.46 118.07 60.46Z" fill="white"/>
<path id="Vector_4" d="M118.09 29.98H30.34C29.29 29.98 28.43 30.84 28.43 31.89V52.54C28.43 53.59 29.29 54.45 30.34 54.45H118.09C119.14 54.45 120 53.59 120 52.54V31.89C120 30.84 119.14 29.98 118.09 29.98ZM29.43 52.54V31.89C29.43 31.38 29.84 30.97 30.35 30.97H59.98V53.46H30.34C29.83 53.46 29.42 53.05 29.42 52.54H29.43ZM119.01 52.54C119.01 53.05 118.6 53.46 118.09 53.46H60.96V30.97H118.09C118.6 30.97 119.01 31.38 119.01 31.89V52.54Z" fill="#292929"/>
<path id="Vector_5" d="M118.09 0H30.34C29.29 0 28.43 0.86 28.43 1.91V22.56C28.43 23.61 29.29 24.47 30.34 24.47H118.09C119.14 24.47 120 23.61 120 22.56V1.91C120 0.86 119.14 0 118.09 0ZM29.43 22.56V1.91C29.43 1.4 29.84 0.99 30.35 0.99H59.98V23.48H30.34C29.83 23.48 29.42 23.07 29.42 22.56H29.43ZM119.01 22.56C119.01 23.07 118.6 23.48 118.09 23.48H60.96V0.99H118.09C118.6 0.99 119.01 1.4 119.01 1.91V22.56Z" fill="#292929"/>
<path id="Vector_6" d="M118.09 59.96H30.34C29.29 59.96 28.43 60.82 28.43 61.87V82.52C28.43 83.57 29.29 84.43 30.34 84.43H118.09C119.14 84.43 120 83.57 120 82.52V61.87C120 60.82 119.14 59.96 118.09 59.96ZM29.43 82.53V61.88C29.43 61.37 29.84 60.96 30.35 60.96H59.98V83.45H30.34C29.83 83.45 29.42 83.04 29.42 82.53H29.43ZM119.01 82.53C119.01 83.04 118.6 83.45 118.09 83.45H60.96V60.96H118.09C118.6 60.96 119.01 61.37 119.01 61.88V82.53Z" fill="#292929"/>
<path id="Vector_7" d="M57.81 16.84C57.96 17.43 58.07 18.04 58.07 18.69H56.31C56.31 17.91 56.17 17.16 55.97 16.44C55.09 14.39 53.05 12.94 50.68 12.94C47.51 12.94 44.93 15.52 44.93 18.69H43.28C43.28 14.61 46.6 11.3 50.67 11.3C51.17 11.3 51.65 11.35 52.12 11.45C50.86 10.71 49.42 10.25 47.86 10.25C43.2 10.25 39.42 14.04 39.42 18.69H37.77C37.77 13.13 42.3 8.60001 47.86 8.60001C49.13 8.60001 50.34 8.85001 51.46 9.28001C49.55 7.90001 47.22 7.08001 44.69 7.08001C38.29 7.08001 33.08 12.29 33.08 18.69H31.43C31.43 11.38 37.38 5.43001 44.69 5.43001C51.37 5.43001 56.9 10.4 57.8 16.84H57.81ZM95.22 12.44C95.32 12.69 95.38 12.97 95.38 13.28C95.38 13.77 95.25 14.19 95.01 14.54C94.76 14.89 94.41 15.16 93.96 15.35C93.58 15.5 93.12 15.58 92.61 15.61V16.5H91.99V15.6C91.48 15.57 91.01 15.49 90.61 15.33C90.13 15.14 89.75 14.84 89.49 14.44C89.22 14.04 89.09 13.54 89.08 12.94H90.87C90.89 13.19 90.95 13.4 91.07 13.56C91.19 13.73 91.35 13.85 91.56 13.94C91.69 13.99 91.84 14.02 91.99 14.05V12.35L91.43 12.22C90.76 12.07 90.23 11.82 89.84 11.47C89.45 11.12 89.26 10.66 89.26 10.07C89.26 9.59001 89.39 9.17001 89.65 8.81001C89.91 8.45001 90.27 8.17001 90.73 7.97001C91.1 7.81001 91.53 7.73001 91.98 7.70001V6.81001H92.6V7.70001C93.07 7.73001 93.5 7.81001 93.86 7.98001C94.3 8.18001 94.65 8.47001 94.89 8.83001C95.13 9.20001 95.26 9.62001 95.26 10.1H93.47C93.44 9.82001 93.33 9.61001 93.13 9.45001C92.99 9.34001 92.81 9.29001 92.59 9.25001V10.85L92.99 10.94C93.37 11.02 93.71 11.13 94.01 11.27C94.3 11.41 94.55 11.57 94.75 11.77C94.95 11.96 95.1 12.18 95.21 12.43L95.22 12.44ZM91.98 9.24001C91.87 9.26001 91.77 9.28001 91.69 9.31001C91.53 9.37001 91.41 9.46001 91.33 9.57001C91.25 9.68001 91.21 9.81001 91.21 9.95001C91.21 10.07 91.23 10.17 91.28 10.26C91.33 10.35 91.41 10.43 91.51 10.49C91.61 10.55 91.73 10.62 91.87 10.67C91.91 10.68 91.95 10.69 91.99 10.7V9.24001H91.98ZM93.47 13.27C93.47 13.12 93.42 13 93.33 12.89C93.24 12.79 93.11 12.69 92.92 12.62C92.82 12.58 92.71 12.54 92.59 12.5V14.02C92.69 14 92.82 14 92.91 13.97C93.09 13.9 93.22 13.81 93.32 13.69C93.42 13.57 93.47 13.43 93.47 13.27ZM87.27 12.43C87.37 12.68 87.43 12.96 87.43 13.27C87.43 13.76 87.3 14.18 87.06 14.53C86.81 14.88 86.46 15.15 86.01 15.34C85.63 15.49 85.17 15.57 84.66 15.6V16.49H84.04V15.59C83.53 15.56 83.06 15.48 82.66 15.32C82.18 15.13 81.8 14.83 81.54 14.43C81.27 14.03 81.14 13.53 81.13 12.93H82.92C82.93 13.18 83 13.39 83.12 13.55C83.24 13.72 83.4 13.84 83.61 13.93C83.74 13.98 83.89 14.01 84.04 14.04V12.34L83.48 12.21C82.81 12.06 82.28 11.81 81.89 11.46C81.5 11.11 81.31 10.65 81.31 10.06C81.31 9.58001 81.44 9.16001 81.7 8.80001C81.96 8.44001 82.32 8.16001 82.78 7.96001C83.15 7.80001 83.58 7.72001 84.03 7.69001V6.80001H84.65V7.69001C85.12 7.72001 85.55 7.80001 85.91 7.97001C86.35 8.17001 86.7 8.46001 86.94 8.82001C87.18 9.19001 87.31 9.61001 87.31 10.09H85.52C85.49 9.81001 85.38 9.60001 85.18 9.44001C85.04 9.33001 84.86 9.28001 84.64 9.24001V10.84L85.04 10.93C85.42 11.01 85.76 11.12 86.06 11.26C86.35 11.4 86.6 11.56 86.8 11.76C87 11.95 87.15 12.17 87.26 12.42L87.27 12.43ZM84.03 9.23001C83.92 9.25001 83.82 9.27001 83.74 9.30001C83.58 9.36001 83.46 9.45001 83.38 9.56001C83.3 9.67001 83.26 9.80001 83.26 9.94001C83.26 10.06 83.28 10.16 83.33 10.25C83.38 10.34 83.46 10.42 83.56 10.48C83.66 10.54 83.78 10.61 83.92 10.66C83.96 10.67 84 10.68 84.04 10.69V9.23001H84.03ZM85.52 13.26C85.52 13.11 85.47 12.99 85.38 12.88C85.29 12.78 85.16 12.68 84.97 12.61C84.87 12.57 84.76 12.53 84.64 12.49V14.01C84.75 13.99 84.87 13.99 84.96 13.96C85.14 13.89 85.27 13.8 85.37 13.68C85.47 13.56 85.52 13.42 85.52 13.26ZM96 16.68H97.58L100.08 7.40001H98.5L96 16.68ZM111.02 7.77001L109.85 12.86H109.79L108.45 7.77001H106.76L105.42 12.85H105.36L104.19 7.77001H102.12L104.38 15.52H106.18L107.58 10.82H107.64L109.04 15.52H110.85L113.1 7.77001H111.03H111.02ZM73.54 11.39L71.62 11.72L71.93 5.72001C71.93 5.57001 71.84 5.43001 71.69 5.40001C71.54 5.37001 71.39 5.44001 71.33 5.58001L67.99 13.41C67.94 13.52 67.96 13.64 68.03 13.73C68.1 13.82 68.22 13.87 68.33 13.85L70.27 13.52L69.44 18.35C69.41 18.5 69.5 18.65 69.64 18.7C69.68 18.71 69.71 18.72 69.75 18.72C69.86 18.72 69.97 18.66 70.02 18.56L73.87 11.86C73.93 11.75 73.92 11.62 73.85 11.52C73.78 11.42 73.66 11.37 73.54 11.39Z" fill="#CA6F20"/>
<path id="Vector_8" d="M40.69 34.85L46.05 46.55L37.36 46.59L31.98 34.85H40.68H40.69ZM43.31 37.85L48.69 49.59L57.37 49.55L52.01 37.85H43.31ZM87.27 42.98C87.37 43.23 87.43 43.51 87.43 43.82C87.43 44.31 87.3 44.73 87.06 45.08C86.81 45.43 86.46 45.7 86.01 45.89C85.63 46.04 85.17 46.12 84.66 46.15V47.04H84.04V46.14C83.53 46.11 83.06 46.03 82.66 45.87C82.18 45.68 81.8 45.38 81.54 44.98C81.27 44.58 81.14 44.08 81.13 43.48H82.92C82.93 43.73 83 43.94 83.12 44.1C83.24 44.26 83.4 44.39 83.61 44.48C83.74 44.53 83.89 44.56 84.04 44.59V42.89L83.48 42.76C82.81 42.61 82.28 42.36 81.89 42.01C81.5 41.66 81.31 41.2 81.31 40.61C81.31 40.13 81.44 39.71 81.7 39.35C81.96 38.99 82.32 38.71 82.78 38.51C83.15 38.35 83.58 38.27 84.03 38.24V37.35H84.65V38.24C85.12 38.27 85.55 38.35 85.91 38.52C86.35 38.72 86.7 39.01 86.94 39.37C87.18 39.74 87.31 40.16 87.31 40.64H85.52C85.49 40.36 85.38 40.15 85.18 39.99C85.04 39.88 84.86 39.83 84.64 39.79V41.39L85.04 41.48C85.42 41.56 85.76 41.67 86.06 41.81C86.35 41.95 86.6 42.11 86.8 42.31C87 42.5 87.15 42.72 87.26 42.97L87.27 42.98ZM84.03 39.78C83.92 39.8 83.82 39.82 83.74 39.85C83.58 39.91 83.46 40 83.38 40.11C83.3 40.22 83.26 40.35 83.26 40.49C83.26 40.61 83.28 40.71 83.33 40.8C83.38 40.89 83.46 40.97 83.56 41.03C83.66 41.09 83.78 41.16 83.92 41.21C83.96 41.22 84 41.23 84.04 41.24V39.78H84.03ZM85.52 43.81C85.52 43.66 85.47 43.54 85.38 43.43C85.29 43.33 85.16 43.23 84.97 43.16C84.87 43.12 84.76 43.08 84.64 43.04V44.56C84.75 44.54 84.87 44.54 84.96 44.51C85.14 44.44 85.27 44.35 85.37 44.23C85.47 44.11 85.52 43.97 85.52 43.81ZM88.06 47.23H89.64L92.14 37.95H90.56L88.06 47.23ZM103.08 38.32L101.91 43.41H101.85L100.51 38.32H98.82L97.48 43.4H97.42L96.25 38.32H94.18L96.44 46.07H98.24L99.64 41.37H99.7L101.1 46.07H102.9L105.15 38.32H103.08ZM73.54 41.63L71.62 41.96L71.93 35.96C71.93 35.81 71.84 35.67 71.69 35.64C71.54 35.61 71.39 35.68 71.33 35.82L67.99 43.65C67.94 43.76 67.96 43.88 68.03 43.97C68.1 44.06 68.22 44.11 68.33 44.09L70.27 43.76L69.44 48.59C69.41 48.74 69.5 48.89 69.64 48.94C69.68 48.95 69.71 48.96 69.75 48.96C69.86 48.96 69.97 48.9 70.02 48.8L73.87 42.1C73.93 41.99 73.92 41.86 73.85 41.76C73.78 41.66 73.66 41.61 73.54 41.63Z" fill="#007AAB"/>
<path id="Vector_9" d="M46.63 64.43L45.69 73.76C45.39 73.68 45.08 73.64 44.76 73.64C44.56 73.64 44.36 73.66 44.18 73.69L42.89 64.43H46.64H46.63ZM34.6 69.76L41.81 75.21C42.11 74.76 42.51 74.39 42.97 74.12L37.25 67.11L34.6 69.76ZM54.96 69.76L52.31 67.11L46.57 74.14C47.03 74.42 47.42 74.79 47.72 75.24L54.96 69.77V69.76ZM33.25 75.31V79.06L41.29 77.94C41.24 77.7 41.21 77.45 41.21 77.19C41.21 76.82 41.27 76.47 41.37 76.13L33.25 75.31ZM48.3 77.19C48.3 77.52 48.26 77.83 48.17 78.13L56.09 79.23V75.48L48.18 76.28C48.26 76.57 48.3 76.86 48.3 77.19ZM95.12 72.52C95.22 72.77 95.28 73.05 95.28 73.36C95.28 73.85 95.15 74.27 94.91 74.62C94.66 74.97 94.31 75.24 93.86 75.43C93.48 75.58 93.02 75.66 92.51 75.69V76.58H91.89V75.68C91.38 75.65 90.91 75.57 90.51 75.41C90.03 75.22 89.65 74.92 89.39 74.52C89.12 74.12 88.98 73.62 88.98 73.02H90.77C90.78 73.27 90.85 73.48 90.97 73.64C91.09 73.81 91.25 73.93 91.46 74.02C91.59 74.07 91.74 74.1 91.89 74.12V72.42L91.33 72.29C90.66 72.14 90.13 71.89 89.74 71.54C89.35 71.19 89.16 70.73 89.16 70.14C89.16 69.66 89.29 69.24 89.55 68.88C89.81 68.52 90.17 68.24 90.63 68.04C91 67.88 91.43 67.8 91.88 67.77V66.88H92.5V67.77C92.97 67.8 93.4 67.88 93.76 68.05C94.2 68.25 94.55 68.54 94.79 68.9C95.03 69.27 95.16 69.69 95.16 70.17H93.37C93.35 69.89 93.23 69.68 93.03 69.52C92.89 69.41 92.71 69.36 92.49 69.32V70.92L92.89 71.01C93.27 71.09 93.61 71.2 93.91 71.34C94.2 71.48 94.45 71.64 94.65 71.84C94.85 72.03 95 72.25 95.11 72.5L95.12 72.52ZM91.88 69.32C91.77 69.34 91.67 69.36 91.59 69.39C91.43 69.45 91.31 69.54 91.23 69.65C91.15 69.76 91.11 69.88 91.11 70.03C91.11 70.15 91.13 70.25 91.18 70.34C91.23 70.43 91.31 70.51 91.41 70.57C91.51 70.63 91.63 70.7 91.77 70.75C91.81 70.76 91.85 70.77 91.89 70.78V69.32H91.88ZM93.37 73.35C93.37 73.2 93.32 73.08 93.23 72.97C93.14 72.87 93.01 72.77 92.82 72.7C92.72 72.66 92.61 72.62 92.49 72.58V74.1C92.6 74.08 92.72 74.08 92.81 74.05C92.99 73.98 93.12 73.89 93.22 73.77C93.32 73.65 93.37 73.51 93.37 73.35ZM87.27 72.51C87.37 72.76 87.43 73.04 87.43 73.35C87.43 73.84 87.3 74.26 87.06 74.61C86.81 74.96 86.46 75.23 86.01 75.42C85.63 75.57 85.17 75.65 84.66 75.68V76.57H84.04V75.67C83.53 75.64 83.06 75.56 82.66 75.4C82.18 75.21 81.8 74.91 81.54 74.51C81.27 74.11 81.14 73.61 81.13 73.01H82.92C82.93 73.26 83 73.47 83.12 73.63C83.24 73.79 83.4 73.92 83.61 74.01C83.74 74.06 83.89 74.09 84.04 74.11V72.41L83.48 72.28C82.81 72.13 82.28 71.88 81.89 71.53C81.5 71.18 81.31 70.72 81.31 70.13C81.31 69.65 81.44 69.23 81.7 68.87C81.96 68.51 82.32 68.23 82.78 68.03C83.15 67.87 83.58 67.79 84.03 67.76V66.87H84.65V67.76C85.12 67.79 85.55 67.87 85.91 68.04C86.35 68.24 86.7 68.53 86.94 68.89C87.18 69.26 87.31 69.68 87.31 70.16H85.52C85.49 69.88 85.38 69.67 85.18 69.51C85.04 69.4 84.86 69.35 84.64 69.31V70.91L85.04 71C85.42 71.08 85.76 71.19 86.06 71.33C86.35 71.47 86.6 71.63 86.8 71.83C87 72.02 87.15 72.24 87.26 72.49L87.27 72.51ZM84.03 69.31C83.92 69.33 83.82 69.35 83.74 69.38C83.58 69.44 83.46 69.53 83.38 69.64C83.3 69.75 83.26 69.87 83.26 70.02C83.26 70.14 83.28 70.24 83.33 70.33C83.38 70.42 83.46 70.5 83.56 70.56C83.66 70.62 83.78 70.69 83.92 70.74C83.96 70.75 84 70.76 84.04 70.77V69.31H84.03ZM85.52 73.34C85.52 73.19 85.47 73.07 85.38 72.96C85.29 72.86 85.16 72.76 84.97 72.69C84.87 72.65 84.76 72.61 84.64 72.57V74.09C84.75 74.07 84.87 74.07 84.96 74.04C85.14 73.97 85.27 73.88 85.37 73.76C85.47 73.64 85.52 73.5 85.52 73.34ZM95.9 76.76H97.48L99.98 67.48H98.4L95.9 76.76ZM110.92 67.84L109.75 72.93H109.69L108.35 67.84H106.66L105.32 72.92H105.26L104.09 67.84H102.02L104.28 75.59H106.08L107.48 70.89H107.54L108.94 75.59H110.75L113 67.84H110.93H110.92ZM73.54 71.15L71.62 71.48L71.93 65.48C71.93 65.33 71.84 65.19 71.69 65.16C71.54 65.13 71.39 65.2 71.33 65.34L67.99 73.17C67.94 73.28 67.96 73.4 68.03 73.49C68.1 73.58 68.22 73.62 68.33 73.6L70.27 73.27L69.44 78.1C69.41 78.25 69.5 78.4 69.64 78.45C69.68 78.46 69.71 78.47 69.75 78.47C69.86 78.47 69.97 78.41 70.02 78.31L73.87 71.61C73.93 71.5 73.92 71.37 73.85 71.27C73.78 71.17 73.66 71.12 73.54 71.14V71.15Z" fill="#35B6AA"/>
</g>
<path id="Vector_10" d="M10.37 64.06C8.11001 62.87 5.68001 61.56 4.82001 61C1.25001 58.67 -1.25999 57.43 2.05001 52.95L6.57001 44.06L9.80001 44.68L8.08001 50.82L6.15001 56.07L11.16 59.39C11.01 59.58 10.86 59.76 10.73 59.97C9.99001 61.23 9.92001 62.73 10.36 64.06H10.37ZM32.71 44.13L31.66 42.77L28.27 43.09C28.27 43.09 30.48 50.34 31.86 54.25C31.93 54.45 31.89 54.67 31.77 54.83L27.98 59.73C28.41 60.47 28.66 61.32 28.67 62.17C28.67 62.8 28.72 63.43 28.75 64.07C31.56 61.42 36.3 56.61 36.3 54.27C36.3 51.29 32.72 44.12 32.72 44.12L32.71 44.13ZM28.49 35.64C28.16 35.95 27.87 36.35 27.61 36.8C27.58 36.82 27.56 36.83 27.53 36.85C24.67 38.68 22.26 39.71 19.41 40.22C17.13 39.47 14.93 38.28 12.57 37.91C11.04 37.67 9.73001 38.06 8.71001 38.8L8.09001 37.8C10.27 34.94 16.22 32.68 16.22 32.68L16.05 29.25C14.55 28.36 13.37 26.98 12.88 25.18C12.77 25.4 12.58 25.57 12.34 25.62C11.88 25.71 11.42 25.35 11.31 24.81C11.2 24.27 11.47 23.75 11.93 23.66C12.19 23.61 12.46 23.7 12.66 23.9C12.66 23.86 12.66 23.82 12.66 23.77C12.42 20 14.64 17.53 17.56 17.53C20.48 17.53 22.41 20.62 22.86 24.36C23.28 27.88 22.43 30.46 20.55 30.46C20.48 30.46 20.41 30.46 20.34 30.46L21.2 32.96C21.88 33.03 24.65 32.8 27.72 34.97C27.99 35.16 28.25 35.39 28.51 35.64H28.49ZM13.73 116.11L16.21 87.6L16.24 87.15C16.28 85.11 14.95 83.37 13.11 83.16C11.14 82.93 9.33001 84.55 9.07001 86.77V87.9L9.31001 115.74C9.15001 117.11 10.01 118.34 11.23 118.49C12.45 118.64 13.57 117.63 13.73 116.26V116.12V116.11ZM29.17 115.32L29.57 86.7V86.25C29.46 84.22 28 82.58 26.15 82.5C24.17 82.41 22.48 84.16 22.38 86.39L22.47 87.52L24.72 115.27C24.66 116.65 25.61 117.82 26.83 117.87C28.05 117.92 29.1 116.85 29.16 115.46V115.32H29.17Z" fill="#7F4D32"/>
<path id="Vector_11" d="M28.57 60.37L35.61 112H22.38L19.65 71.52L15.35 112H3.08002L10.91 60.11L28.58 60.37H28.57Z" fill="#CA6F20"/>
<path id="Vector_12" d="M14.12 119.5H8.28998C8.09998 119.1 8.06998 118.62 8.20998 118.06C8.47998 116.99 8.76998 115.93 9.12998 114.89C9.21998 114.64 9.32998 114.43 9.46998 114.24C10.19 113.25 11.55 113.16 12.54 114.12C12.56 114.14 12.58 114.16 12.6 114.18C13.06 114.66 13.34 115.19 13.51 115.82C13.71 116.54 14.02 117.23 14.22 117.95C14.39 118.56 14.35 119.08 14.13 119.5H14.12ZM24.12 119.5H38.66C39.01 119.5 39.29 119.22 39.29 118.88V118.11C39.29 117.51 38.91 116.96 38.34 116.75C36.88 116.2 34.08 115.11 32.47 114.35C30.97 113.64 30.07 113.12 29.64 112.86C29.44 112.74 29.2 112.74 29 112.86L28.69 113.04C28.43 113.19 28.32 113.49 28.41 113.77C28.52 114.09 28.34 114.45 28.01 114.55L27.34 114.77C26.95 114.9 26.52 114.86 26.16 114.65L25.19 114.1C24.77 113.86 24.24 114.07 24.11 114.53C23.94 115.11 23.74 115.91 23.63 116.75C23.51 117.64 23.49 118.39 23.48 118.88C23.48 119.22 23.76 119.5 24.11 119.5H24.12Z" fill="white"/>
<path id="Vector_13" d="M33.59 43.97C33.59 43.97 33.37 43.5 33 42.77C32.92 42.52 32.84 42.27 32.76 42.03L32.65 42.1C31.72 40.34 30.21 37.73 28.68 36.06C29.02 36.13 29.27 36.2 29.27 36.2L28.28 35.64C27.88 35.25 27.49 34.94 27.11 34.73L26.97 34.9L24.41 33.45C24.41 33.45 24.6 35.65 21.45 36.19C18.3 36.73 14.92 33.2 14.92 33.2L11.84 34.76C11.84 34.76 11.29 35.09 8.98998 36.79C6.68998 38.49 2.03998 50.46 2.03998 50.46L7.84998 52.5L11.51 44.44L11.28 51.37L10.74 60.31C11.04 60.26 11.36 60.23 11.7 60.24C17.32 60.33 22.94 60.42 28.56 60.42C28.56 60.42 28.56 60.42 28.58 60.42C28.63 57.59 28.68 54.08 28.7 51.06L30.21 52.93L31.05 54.58L35.09 49.08C35.09 49.08 35.14 46.59 33.6 43.94L33.59 43.97Z" fill="white"/>
<path id="Vector_14" d="M38.51 116.29C37.01 115.72 34.27 114.66 32.68 113.91C31.28 113.24 30.42 112.76 29.99 112.5H35.6C35.74 112.5 35.88 112.44 35.97 112.33C36.06 112.22 36.11 112.08 36.09 111.94L29.56 63.98C32.63 61.05 36.78 56.65 36.78 54.28C36.78 53.04 36.21 51.16 35.52 49.33C35.57 49.22 35.59 49.09 35.55 48.97C35.55 48.97 34.64 46.26 33.7 43.34C33.73 43.24 30.92 36.15 27.99 34.57C27.33 34.21 26.7 33.92 26.11 33.68C26.15 33.64 24.3 32.49 21.59 32.49C21.59 32.49 21.57 32.49 21.56 32.49C21.55 32.49 21.55 32.49 21.54 32.49L21 30.92C21.5 30.82 21.95 30.56 22.31 30.15C23.28 29.06 23.65 26.94 23.33 24.31C23.09 22.35 22.49 20.68 21.62 19.43C21.62 19.32 21.58 19.21 21.5 19.13C21.48 19.1 21.25 18.87 20.92 18.57C20.6 18.24 20.25 17.96 19.88 17.73C19.4 17.39 18.88 17.08 18.36 16.91C17.78 16.73 17.18 16.68 16.6 16.7C15.94 16.54 15.24 16.51 14.49 16.65C14.45 16.52 14.4 16.39 14.34 16.28C14.28 16.14 14.2 15.98 14.2 15.9C14.2 15.82 14.28 15.65 14.34 15.52C14.48 15.21 14.65 14.83 14.52 14.42C14.39 14.02 14.03 13.81 13.74 13.64C13.61 13.56 13.44 13.47 13.4 13.4C13.36 13.34 13.33 13.16 13.3 13.02C13.24 12.69 13.17 12.27 12.82 12C12.48 11.73 12.06 11.76 11.72 11.78C11.58 11.78 11.39 11.8 11.33 11.78C11.25 11.75 11.12 11.61 11.01 11.5C10.78 11.26 10.49 10.96 10.07 10.93C9.64999 10.91 9.29999 11.16 9.03999 11.37C8.92999 11.46 8.77999 11.58 8.69999 11.59C8.62999 11.61 8.43999 11.57 8.29999 11.55C7.95999 11.49 7.54999 11.41 7.17999 11.64C6.81999 11.87 6.70999 12.28 6.62999 12.6C6.58999 12.75 6.53999 12.93 6.48999 13C6.43999 13.07 6.26999 13.16 6.12999 13.23C5.82999 13.39 5.45999 13.59 5.32999 14C5.18999 14.41 5.35999 14.8 5.50999 15.11C5.56999 15.25 5.64999 15.41 5.64999 15.49C5.64999 15.57 5.56999 15.74 5.50999 15.87C5.36999 16.18 5.19999 16.57 5.32999 16.98C5.45999 17.38 5.81999 17.59 6.10999 17.76C6.23999 17.84 6.40999 17.93 6.44999 18C6.48999 18.06 6.51999 18.24 6.54999 18.38C6.60999 18.72 6.67999 19.13 7.02999 19.4C7.36999 19.67 7.78999 19.64 8.12999 19.62C8.26999 19.62 8.45999 19.6 8.51999 19.62C8.59999 19.65 8.72999 19.79 8.83999 19.9C9.06999 20.14 9.35999 20.44 9.77999 20.47C9.79999 20.47 9.82999 20.47 9.84999 20.47C10.25 20.47 10.56 20.23 10.81 20.03C10.89 19.97 10.99 19.9 11.07 19.85C10.8 20.8 10.76 21.92 10.98 23.13C10.98 23.16 11 23.2 11.01 23.23C11.06 23.34 11.11 23.45 11.16 23.56C10.86 23.9 10.71 24.4 10.82 24.91C10.9 25.29 11.1 25.62 11.39 25.84C11.7 26.08 12.08 26.17 12.44 26.1C12.51 26.09 12.58 26.07 12.64 26.04C13.21 27.46 14.24 28.66 15.56 29.52L15.7 32.35C15.35 32.49 14.04 33.1 14.05 33.11L11.62 34.35C11.62 34.35 11.62 34.35 11.6 34.36H11.59C11.57 34.37 10.99 34.72 8.69999 36.42C6.34999 38.16 2.06999 49.07 1.58999 50.31C1.53999 50.43 1.54999 50.57 1.59999 50.7C1.64999 50.83 1.75999 50.92 1.88999 50.96L2.41999 51.15L1.64999 52.67C0.339988 54.44 -0.160012 55.83 0.0599879 57.04C0.359988 58.71 1.95999 59.75 3.97999 61.05L4.55999 61.42C5.38999 61.96 7.61999 63.17 9.78999 64.31L2.58999 111.93C2.56999 112.07 2.60999 112.22 2.69999 112.33C2.78999 112.44 2.92999 112.5 3.07999 112.5H8.77999L8.79999 114.4C8.74999 114.51 8.69999 114.62 8.64999 114.74C8.25999 115.87 7.95999 117 7.71999 117.95C7.54999 118.62 7.58999 119.22 7.83999 119.73C7.91999 119.9 8.09999 120.01 8.28999 120.01H14.12C14.3 120.01 14.48 119.91 14.56 119.74C14.84 119.2 14.88 118.55 14.68 117.83C14.58 117.46 14.44 117.09 14.31 116.72L14.55 112.5H15.33C15.58 112.5 15.8 112.31 15.82 112.06L19.52 77.26L21.86 112.04C21.88 112.3 22.09 112.5 22.35 112.5H23.92L24.05 113.76C23.84 113.92 23.69 114.14 23.61 114.39C23.45 114.95 23.23 115.8 23.12 116.68C23 117.62 22.97 118.39 22.97 118.87C22.97 119.17 23.08 119.45 23.29 119.66C23.5 119.87 23.79 119.99 24.09 119.99H38.63C39.25 119.99 39.75 119.49 39.75 118.87V118.1C39.75 117.29 39.24 116.56 38.48 116.27L38.51 116.29ZM35.79 54.27C35.79 55.73 33.43 58.85 29.4 62.76L29.07 60.36C29.07 59.95 29.08 59.52 29.09 59.09L32.15 55.13C32.38 54.83 32.44 54.44 32.32 54.08C32.29 54 32.26 53.91 32.23 53.83L34.82 50.31C35.37 51.83 35.78 53.3 35.78 54.28L35.79 54.27ZM29.12 57.44C29.15 55.63 29.17 53.74 29.18 51.96L29.76 53.19L30.6 54.84C30.67 54.97 30.79 55.05 30.94 55.09L29.12 57.44ZM21.14 33.45C21.24 33.45 21.37 33.46 21.54 33.47C21.64 33.47 21.77 33.47 21.9 33.48C21.95 33.48 22.01 33.48 22.06 33.48C22.16 33.48 22.27 33.49 22.38 33.5C22.45 33.5 22.52 33.51 22.6 33.52C22.73 33.53 22.87 33.55 23.02 33.57C23.11 33.58 23.19 33.6 23.28 33.61C23.45 33.64 23.62 33.67 23.8 33.72C23.84 33.72 23.87 33.74 23.91 33.75C23.83 34.26 23.42 35.35 21.38 35.7C19.21 36.07 16.85 34.27 15.82 33.36C16.17 33.21 16.39 33.13 16.4 33.13C16.6 33.05 16.73 32.86 16.72 32.64L16.59 30.07C17.61 30.55 18.75 30.83 19.96 30.91L20.72 33.1C20.72 33.1 20.72 33.12 20.73 33.13C20.76 33.2 20.8 33.26 20.86 33.31C20.88 33.32 20.89 33.34 20.91 33.35C20.98 33.4 21.05 33.43 21.14 33.44V33.45ZM14.02 26.59C14.05 26.53 14.09 26.48 14.1 26.41C14.21 25.66 14.68 23.57 15.48 22.94C16.63 22.02 17.26 20.83 17.61 19.78C17.73 19.84 17.84 19.89 17.95 19.94C18.34 20.14 18.85 20.2 19.34 20.2C19.92 20.2 20.49 20.11 20.86 20.04C21.66 21.24 22.16 22.83 22.36 24.42C22.64 26.73 22.34 28.62 21.58 29.48C21.29 29.81 20.95 29.97 20.54 29.97C18.2 29.97 15.42 28.9 14.02 26.59ZM9.28999 37.21C11.4 35.65 12.01 35.26 12.09 35.21L14.83 33.81C15.64 34.58 18.16 36.75 20.78 36.75C21.03 36.75 21.29 36.73 21.54 36.69C24.01 36.26 24.67 34.86 24.85 34.04C25.01 34.1 25.17 34.16 25.34 34.23C25.39 34.25 25.45 34.27 25.5 34.3C26.11 34.56 26.76 34.91 27.42 35.38C28.25 35.96 29.15 36.95 30 38.15C31.28 39.95 32.22 41.98 32.9 44.09C33.62 46.32 34.3 48.35 34.53 49.04L31.12 53.68L29.19 49.65C29.19 47.96 29.17 46.51 29.13 45.59C29 42.65 28.5 40.65 28.14 39.2C28.03 38.74 27.92 38.33 27.84 37.94C27.78 37.67 27.52 37.5 27.26 37.55C26.99 37.61 26.82 37.87 26.87 38.13C26.95 38.53 27.06 38.96 27.18 39.43C27.55 40.93 28.02 42.79 28.15 45.63C28.26 48.02 28.19 53.96 28.11 58.75L28.09 58.78C28.09 58.78 28.1 58.81 28.11 58.83C28.11 59.18 28.1 59.53 28.09 59.87L11.43 59.63L11.79 51.42L12.32 43.84C12.34 43.6 12.18 43.38 11.95 43.32C11.72 43.26 11.48 43.38 11.38 43.6L7.59999 51.91L2.69999 50.19C4.11999 46.6 7.57999 38.48 9.28999 37.22V37.21ZM10.8 51.37L10.5 58.34L6.76999 55.87L7.81999 53.01C7.81999 53.01 7.84999 53.01 7.86999 53.01C8.05999 53.01 8.23999 52.9 8.31999 52.72L11.15 46.51L10.81 51.36L10.8 51.37ZM5.08999 60.58L4.50999 60.2C2.68999 59.03 1.25999 58.1 1.02999 56.84C0.859988 55.93 1.32999 54.75 2.48999 53.16L3.35999 51.45L6.86999 52.68L5.68999 55.88C5.60999 56.1 5.68999 56.34 5.87999 56.46L10.44 59.48L10.42 60.05L9.93999 63.24C7.88999 62.16 5.85999 61.05 5.09999 60.56L5.08999 60.58ZM13.78 119.01H8.64999C8.59999 118.77 8.61999 118.5 8.68999 118.19C8.91999 117.26 9.20999 116.15 9.58999 115.06C9.65999 114.86 9.74999 114.69 9.85999 114.54C10.11 114.2 10.47 113.99 10.87 113.96C11.32 113.93 11.8 114.11 12.24 114.54C12.62 114.93 12.86 115.37 13.03 115.96C13.13 116.32 13.26 116.68 13.39 117.04C13.51 117.39 13.64 117.73 13.74 118.09C13.84 118.44 13.85 118.75 13.79 119.02L13.78 119.01ZM9.77999 112.5H13.55L13.39 114.39C13.26 114.21 13.13 114.03 12.97 113.87C12.97 113.86 12.89 113.79 12.88 113.78C12.28 113.2 11.52 112.91 10.79 112.97C10.43 113 10.09 113.11 9.78999 113.29V112.49L9.77999 112.5ZM22.83 111.51L20.14 71.49C20.12 71.23 19.91 71.03 19.65 71.03C19.4 71.03 19.18 71.22 19.16 71.47L14.91 111.51H3.65999L10.3 67.47C10.34 67.71 10.55 67.88 10.79 67.88C10.82 67.88 10.84 67.88 10.87 67.88C10.93 67.88 12.4 67.64 13.8 67.29C15.5 66.86 15.03 63.16 14.85 62.03C14.81 61.76 14.55 61.57 14.28 61.62C14.01 61.66 13.83 61.92 13.87 62.19C14.17 64.03 14.1 66.19 13.56 66.32C12.21 66.66 10.74 66.89 10.72 66.89C10.55 66.92 10.42 67.03 10.35 67.18L11.34 60.62L28.15 60.87L35.05 111.52H22.85L22.83 111.51ZM27.94 113.93L27.86 114.08L27.19 114.3C26.93 114.39 26.65 114.36 26.41 114.22L25.44 113.67C25.32 113.6 25.18 113.56 25.05 113.53L24.95 112.49H28.63L28.44 112.6C27.98 112.87 27.77 113.42 27.94 113.92V113.93ZM38.78 118.89C38.78 118.96 38.72 119.01 38.65 119.01H24.11C24.11 119.01 24.03 118.99 23.98 118.89C23.98 118.43 24.01 117.7 24.12 116.82C24.23 116 24.43 115.2 24.58 114.68C24.61 114.58 24.68 114.54 24.72 114.52C24.74 114.52 24.78 114.5 24.82 114.5C24.86 114.5 24.9 114.5 24.94 114.53L25.91 115.08C26.39 115.36 26.97 115.41 27.49 115.24L28.16 115.02C28.44 114.93 28.68 114.73 28.81 114.46C28.94 114.19 28.96 113.89 28.87 113.61C28.85 113.56 28.87 113.5 28.93 113.47L29.24 113.29C29.24 113.29 29.33 113.27 29.38 113.29C29.89 113.6 30.8 114.11 32.25 114.8C33.87 115.57 36.64 116.64 38.15 117.22C38.53 117.36 38.78 117.72 38.78 118.12V118.89ZM21.53 42.37C20.82 42.37 20.25 42.94 20.25 43.65C20.25 44.36 20.82 44.93 21.53 44.93C22.24 44.93 22.81 44.36 22.81 43.65C22.81 42.94 22.24 42.37 21.53 42.37ZM21.53 43.94C21.37 43.94 21.24 43.81 21.24 43.65C21.24 43.49 21.37 43.36 21.53 43.36C21.69 43.36 21.82 43.49 21.82 43.65C21.82 43.81 21.69 43.94 21.53 43.94ZM28.67 67.01C28.63 67.26 28.42 67.43 28.18 67.43C28.15 67.43 28.13 67.43 28.1 67.43C28.04 67.43 26.57 67.19 25.17 66.84C23.47 66.41 23.94 62.71 24.12 61.58C24.16 61.31 24.42 61.12 24.69 61.17C24.96 61.21 25.14 61.47 25.1 61.74C24.8 63.58 24.87 65.74 25.41 65.87C26.76 66.21 28.23 66.44 28.25 66.44C28.52 66.48 28.71 66.73 28.66 67.01H28.67ZM21.17 40.6C21.88 40.6 22.45 40.03 22.45 39.32C22.45 38.61 21.88 38.04 21.17 38.04C20.46 38.04 19.89 38.61 19.89 39.32C19.89 40.03 20.46 40.6 21.17 40.6ZM21.17 39.03C21.33 39.03 21.46 39.16 21.46 39.32C21.46 39.48 21.33 39.61 21.17 39.61C21.01 39.61 20.88 39.48 20.88 39.32C20.88 39.16 21.01 39.03 21.17 39.03ZM21.53 47.23C20.82 47.23 20.25 47.8 20.25 48.51C20.25 49.22 20.82 49.79 21.53 49.79C22.24 49.79 22.81 49.22 22.81 48.51C22.81 47.8 22.24 47.23 21.53 47.23ZM21.53 48.8C21.37 48.8 21.24 48.67 21.24 48.51C21.24 48.35 21.37 48.22 21.53 48.22C21.69 48.22 21.82 48.35 21.82 48.51C21.82 48.67 21.69 48.8 21.53 48.8ZM20.34 62.22V69.12C20.34 69.39 20.12 69.62 19.84 69.62C19.56 69.62 19.34 69.4 19.34 69.12V62.22C19.34 61.95 19.56 61.72 19.84 61.72C20.12 61.72 20.34 61.94 20.34 62.22Z" fill="#292929"/>
</g>
<defs>
<clipPath id="clip0_355_4798">
<rect width="120" height="120" fill="white"/>
</clipPath>
</defs>
</svg>
