<svg width="120" height="120" viewBox="0 0 120 120" fill="none" xmlns="http://www.w3.org/2000/svg">
<g id="Rooftop_03" clip-path="url(#clip0_355_4820)">
<g id="Group">
<path id="Vector" d="M3.07 31.02C3.25 31.02 3.42 30.91 3.5 30.75L4.48 28.86L5.8 27.87C5.92 27.78 6 27.63 6 27.48C6 27.33 5.93 27.18 5.81 27.08L4.4 25.98L3.26 23.99C3.17 23.83 2.97 23.71 2.82 23.74C2.64 23.74 2.47 23.85 2.39 24.01L1.4 25.91L0.17 26.9C0.07 27.01 0 27.15 0 27.29C0 27.44 0.06 27.58 0.18 27.67L1.5 28.77L2.64 30.76C2.73 30.91 2.89 31.01 3.07 31.01V31.02ZM2.2 28.07L1.27 27.3L2.11 26.62C2.16 26.58 2.21 26.52 2.24 26.46L2.86 25.28L3.59 26.56C3.62 26.62 3.66 26.67 3.71 26.71L4.69 27.48L3.8 28.15C3.74 28.19 3.69 28.25 3.66 28.32L3.04 29.5L2.31 28.22C2.28 28.17 2.24 28.12 2.2 28.09V28.07ZM5.24 33.92L4.53 32.68C4.44 32.52 4.29 32.42 4.09 32.43C3.91 32.43 3.74 32.54 3.66 32.7L3.05 33.88L2.3 34.49C2.18 34.58 2.12 34.72 2.12 34.87C2.12 35.02 2.18 35.16 2.3 35.25L3.12 35.93L3.83 37.17C3.92 37.32 4.08 37.42 4.26 37.42C4.44 37.42 4.61 37.31 4.69 37.15L5.3 35.98L6.11 35.37C6.23 35.28 6.31 35.13 6.31 34.98C6.31 34.83 6.24 34.68 6.12 34.58L5.25 33.9L5.24 33.92ZM4.61 35.27C4.55 35.31 4.5 35.37 4.47 35.44L4.23 35.9L3.92 35.37C3.89 35.32 3.85 35.27 3.81 35.24L3.39 34.89L3.76 34.59C3.81 34.55 3.86 34.49 3.89 34.43L4.13 33.97L4.44 34.5C4.47 34.56 4.51 34.61 4.56 34.65L5 34.99L4.62 35.27H4.61ZM10.39 23.66L9.52 22.98L8.81 21.75C8.72 21.59 8.55 21.51 8.37 21.5C8.19 21.5 8.02 21.61 7.94 21.77L7.33 22.94L6.58 23.55C6.46 23.64 6.4 23.78 6.4 23.93C6.4 24.08 6.46 24.22 6.58 24.31L7.4 24.99L8.11 26.23C8.2 26.38 8.36 26.48 8.54 26.48C8.72 26.48 8.89 26.37 8.97 26.21L9.58 25.04L10.39 24.43C10.51 24.34 10.59 24.19 10.59 24.04C10.59 23.89 10.52 23.74 10.4 23.64L10.39 23.66ZM8.89 24.33C8.83 24.37 8.78 24.43 8.75 24.5L8.51 24.96L8.2 24.43C8.17 24.38 8.13 24.33 8.09 24.3L7.67 23.95L8.04 23.65C8.09 23.61 8.14 23.55 8.17 23.49L8.41 23.03L8.72 23.56C8.75 23.62 8.79 23.67 8.84 23.71L9.28 24.05L8.9 24.33H8.89Z" fill="#292929"/>
<path id="Vector_2" d="M103.85 0.5H16.14C15.3502 0.5 14.71 1.14023 14.71 1.93V22.55C14.71 23.3398 15.3502 23.98 16.14 23.98H103.85C104.64 23.98 105.28 23.3398 105.28 22.55V1.93C105.28 1.14023 104.64 0.5 103.85 0.5Z" fill="white"/>
<path id="Vector_3" d="M103.87 0H16.13C15.08 0 14.22 0.86 14.22 1.91V22.56C14.22 23.61 15.08 24.47 16.13 24.47H103.87C104.92 24.47 105.78 23.61 105.78 22.56V1.91C105.78 0.86 104.92 0 103.87 0ZM15.21 22.56V1.91C15.21 1.4 15.62 0.99 16.13 0.99H45.76V23.48H16.13C15.62 23.48 15.21 23.07 15.21 22.56ZM104.79 22.56C104.79 23.07 104.38 23.48 103.87 23.48H46.74V0.99H103.87C104.38 0.99 104.79 1.4 104.79 1.91V22.56Z" fill="#292929"/>
<path id="Vector_4" d="M103.85 60.46H16.14C15.3502 60.46 14.71 61.1002 14.71 61.89V82.51C14.71 83.2998 15.3502 83.94 16.14 83.94H103.85C104.64 83.94 105.28 83.2998 105.28 82.51V61.89C105.28 61.1002 104.64 60.46 103.85 60.46Z" fill="white"/>
<path id="Vector_5" d="M103.87 59.96H16.13C15.08 59.96 14.22 60.82 14.22 61.87V82.52C14.22 83.57 15.08 84.43 16.13 84.43H103.87C104.92 84.43 105.78 83.57 105.78 82.52V61.87C105.78 60.82 104.92 59.96 103.87 59.96ZM15.21 82.53V61.88C15.21 61.37 15.62 60.96 16.13 60.96H45.76V83.45H16.13C15.62 83.45 15.21 83.04 15.21 82.53ZM104.79 82.53C104.79 83.04 104.38 83.45 103.87 83.45H46.74V60.96H103.87C104.38 60.96 104.79 61.37 104.79 61.88V82.53Z" fill="#292929"/>
<path id="Vector_6" d="M43.85 18.68H42.09C42.09 17.89 41.95 17.15 41.75 16.43C40.87 14.38 38.83 12.93 36.46 12.93C33.29 12.93 30.71 15.51 30.71 18.68H29.06C29.06 14.6 32.38 11.29 36.45 11.29C36.95 11.29 37.43 11.34 37.9 11.44C36.64 10.7 35.2 10.24 33.64 10.24C28.98 10.24 25.2 14.03 25.2 18.68H23.55C23.55 13.12 28.08 8.59001 33.64 8.59001C34.91 8.59001 36.12 8.84001 37.24 9.27001C35.33 7.89001 33 7.07001 30.47 7.07001C24.07 7.07001 18.86 12.28 18.86 18.68H17.21C17.21 11.37 23.16 5.42001 30.46 5.42001C37.14 5.42001 42.67 10.39 43.57 16.83C43.72 17.42 43.83 18.03 43.83 18.68H43.85ZM81 12.43C81.1 12.68 81.16 12.96 81.16 13.27C81.16 13.76 81.03 14.18 80.79 14.53C80.54 14.88 80.19 15.15 79.74 15.34C79.36 15.49 78.9 15.57 78.39 15.6V16.49H77.77V15.59C77.26 15.56 76.79 15.48 76.39 15.32C75.91 15.13 75.53 14.83 75.27 14.43C75 14.03 74.87 13.53 74.86 12.93H76.65C76.67 13.18 76.73 13.39 76.85 13.55C76.97 13.72 77.13 13.84 77.34 13.93C77.47 13.98 77.62 14.01 77.77 14.04V12.34L77.21 12.21C76.54 12.06 76.01 11.81 75.62 11.46C75.23 11.11 75.04 10.65 75.04 10.06C75.04 9.58001 75.17 9.16001 75.43 8.80001C75.69 8.44001 76.05 8.16001 76.51 7.96001C76.88 7.80001 77.31 7.72001 77.76 7.69001V6.80001H78.38V7.69001C78.85 7.72001 79.28 7.80001 79.64 7.97001C80.08 8.17001 80.43 8.46001 80.67 8.82001C80.91 9.19001 81.04 9.61001 81.04 10.09H79.25C79.22 9.81001 79.11 9.60001 78.91 9.44001C78.77 9.33001 78.59 9.28001 78.37 9.24001V10.84L78.77 10.93C79.15 11.01 79.49 11.12 79.79 11.26C80.09 11.4 80.33 11.56 80.53 11.76C80.73 11.95 80.88 12.17 80.99 12.42L81 12.43ZM77.76 10.69V9.23001C77.65 9.25001 77.55 9.27001 77.47 9.30001C77.31 9.36001 77.19 9.45001 77.11 9.56001C77.03 9.67001 76.99 9.80001 76.99 9.94001C76.99 10.06 77.01 10.16 77.06 10.25C77.11 10.34 77.19 10.42 77.29 10.48C77.39 10.54 77.51 10.61 77.65 10.66C77.69 10.67 77.73 10.68 77.77 10.69H77.76ZM79.25 13.27C79.25 13.12 79.2 13 79.11 12.89C79.02 12.79 78.89 12.7 78.7 12.62C78.6 12.58 78.49 12.54 78.37 12.5V14.02C78.47 14 78.6 14 78.69 13.97C78.87 13.9 79 13.81 79.1 13.69C79.2 13.57 79.25 13.43 79.25 13.27ZM73.05 12.43C73.15 12.68 73.21 12.96 73.21 13.27C73.21 13.76 73.08 14.18 72.84 14.53C72.59 14.88 72.24 15.15 71.79 15.34C71.41 15.49 70.95 15.57 70.44 15.6V16.49H69.82V15.59C69.31 15.56 68.84 15.48 68.44 15.32C67.96 15.13 67.58 14.83 67.32 14.43C67.05 14.03 66.92 13.53 66.91 12.93H68.7C68.71 13.18 68.78 13.39 68.9 13.55C69.02 13.72 69.18 13.84 69.39 13.93C69.52 13.98 69.67 14.01 69.82 14.04V12.34L69.26 12.21C68.59 12.06 68.06 11.81 67.67 11.46C67.28 11.11 67.09 10.65 67.09 10.06C67.09 9.58001 67.22 9.16001 67.48 8.80001C67.74 8.44001 68.1 8.16001 68.56 7.96001C68.93 7.80001 69.36 7.72001 69.81 7.69001V6.80001H70.43V7.69001C70.9 7.72001 71.33 7.80001 71.69 7.97001C72.13 8.17001 72.48 8.46001 72.72 8.82001C72.96 9.19001 73.09 9.61001 73.09 10.09H71.3C71.27 9.81001 71.16 9.60001 70.96 9.44001C70.82 9.33001 70.64 9.28001 70.42 9.24001V10.84L70.82 10.93C71.2 11.01 71.54 11.12 71.84 11.26C72.14 11.4 72.38 11.56 72.58 11.76C72.78 11.95 72.93 12.17 73.04 12.42L73.05 12.43ZM69.81 10.69V9.23001C69.7 9.25001 69.6 9.27001 69.52 9.30001C69.36 9.36001 69.24 9.45001 69.16 9.56001C69.08 9.67001 69.04 9.80001 69.04 9.94001C69.04 10.06 69.06 10.16 69.11 10.25C69.16 10.34 69.24 10.42 69.34 10.48C69.44 10.54 69.56 10.61 69.7 10.66C69.74 10.67 69.78 10.68 69.82 10.69H69.81ZM71.3 13.27C71.3 13.12 71.25 13 71.16 12.89C71.07 12.79 70.94 12.7 70.75 12.62C70.65 12.58 70.54 12.54 70.42 12.5V14.02C70.53 14 70.65 14 70.74 13.97C70.92 13.9 71.05 13.81 71.15 13.69C71.25 13.57 71.3 13.43 71.3 13.27ZM81.78 16.69H83.36L85.86 7.41001H84.28L81.78 16.69ZM96.8 7.77001L95.63 12.86H95.57L94.23 7.77001H92.54L91.2 12.85H91.14L89.97 7.77001H87.9L90.16 15.52H91.96L93.36 10.82H93.42L94.82 15.52H96.63L98.88 7.77001H96.81H96.8ZM59.63 11.52C59.56 11.42 59.44 11.37 59.32 11.39L57.4 11.72L57.71 5.72001C57.71 5.57001 57.62 5.43001 57.47 5.40001C57.32 5.37001 57.17 5.44001 57.11 5.58001L53.77 13.41C53.72 13.52 53.74 13.64 53.81 13.73C53.88 13.82 54 13.86 54.11 13.85L56.05 13.52L55.22 18.35C55.19 18.5 55.28 18.65 55.42 18.7C55.46 18.71 55.49 18.72 55.53 18.72C55.64 18.72 55.75 18.66 55.8 18.56L59.65 11.86C59.71 11.75 59.7 11.62 59.63 11.52Z" fill="#CA6F20"/>
<path id="Vector_7" d="M111.22 28.75H8.78001C7.99024 28.75 7.35001 29.3902 7.35001 30.18V52.53C7.35001 53.3198 7.99024 53.96 8.78001 53.96H111.22C112.01 53.96 112.65 53.3198 112.65 52.53V30.18C112.65 29.3902 112.01 28.75 111.22 28.75Z" fill="#99CBDF"/>
<path id="Vector_8" d="M111.24 28.25H8.76001C7.71001 28.25 6.85001 29.11 6.85001 30.16V52.55C6.85001 53.6 7.71001 54.46 8.76001 54.46H46.5C46.59 54.54 46.7 54.59 46.83 54.59C46.96 54.59 47.07 54.54 47.16 54.46H111.24C112.29 54.46 113.15 53.6 113.15 52.55V30.16C113.15 29.11 112.29 28.25 111.24 28.25ZM7.85001 52.55V30.16C7.85001 29.65 8.26001 29.24 8.77001 29.24H46.34V53.46H8.76001C8.25001 53.46 7.84001 53.05 7.84001 52.54L7.85001 52.55ZM112.16 52.55C112.16 53.06 111.75 53.47 111.24 53.47H47.33V29.24H111.24C111.75 29.24 112.16 29.65 112.16 30.16V52.55Z" fill="#292929"/>
<path id="Vector_9" d="M22.05 33.37L28 46.35L18.37 46.4L12.4 33.37H22.05ZM34.62 36.7H24.97L30.94 49.73L40.57 49.68L34.62 36.7ZM79 42.47C79.14 42.81 79.21 43.18 79.21 43.6C79.21 44.26 79.04 44.82 78.71 45.29C78.38 45.76 77.91 46.12 77.29 46.37C76.78 46.58 76.16 46.68 75.48 46.71V47.91H74.65V46.71C73.96 46.67 73.33 46.57 72.79 46.35C72.14 46.09 71.64 45.69 71.28 45.16C70.92 44.63 70.74 43.96 70.73 43.14H73.14C73.16 43.48 73.25 43.76 73.41 43.98C73.57 44.2 73.79 44.37 74.07 44.49C74.24 44.56 74.44 44.6 74.65 44.63V42.35L73.9 42.18C73 41.97 72.29 41.64 71.77 41.18C71.25 40.72 70.99 40.09 71 39.3C71 38.66 71.17 38.09 71.52 37.61C71.87 37.13 72.35 36.75 72.97 36.48C73.47 36.26 74.04 36.15 74.65 36.11V34.91H75.48V36.11C76.11 36.15 76.69 36.26 77.17 36.48C77.76 36.75 78.23 37.14 78.56 37.63C78.89 38.12 79.06 38.69 79.06 39.34H76.65C76.62 38.97 76.47 38.68 76.2 38.47C76.02 38.33 75.76 38.25 75.48 38.21V40.36L76.02 40.48C76.53 40.59 76.99 40.74 77.38 40.93C77.77 41.12 78.11 41.34 78.38 41.6C78.65 41.86 78.85 42.15 78.99 42.49L79 42.47ZM74.65 40.13V38.17C74.51 38.19 74.37 38.22 74.26 38.27C74.04 38.35 73.88 38.47 73.77 38.62C73.66 38.77 73.61 38.94 73.6 39.13C73.6 39.29 73.62 39.42 73.69 39.54C73.76 39.66 73.86 39.76 74 39.85C74.14 39.94 74.3 40.02 74.49 40.09C74.54 40.11 74.6 40.12 74.65 40.13ZM76.66 43.59C76.66 43.39 76.6 43.22 76.48 43.08C76.36 42.94 76.18 42.82 75.93 42.71C75.8 42.66 75.65 42.6 75.49 42.55V44.59C75.63 44.57 75.8 44.57 75.91 44.52C76.15 44.43 76.33 44.3 76.46 44.14C76.59 43.98 76.66 43.79 76.66 43.58V43.59ZM80.07 48.18H82.19L85.54 35.72H83.42L80.07 48.18ZM100.24 36.2L98.66 43.04H98.57L96.78 36.2H94.51L92.72 43.02H92.63L91.06 36.2H88.28L91.31 46.61H93.73L95.61 40.3H95.69L97.57 46.61H99.99L103.01 36.2H100.23H100.24ZM60.56 40.65L57.99 41.09L58.4 33.03C58.41 32.83 58.27 32.64 58.07 32.6C57.87 32.55 57.67 32.66 57.59 32.85L53.1 43.37C53.04 43.51 53.06 43.68 53.16 43.8C53.26 43.92 53.41 43.98 53.56 43.95L56.17 43.5L55.05 49.99C55.01 50.19 55.13 50.39 55.32 50.46C55.37 50.48 55.42 50.49 55.46 50.49C55.61 50.49 55.75 50.41 55.83 50.28L61 41.28C61.08 41.14 61.07 40.96 60.98 40.83C60.89 40.7 60.72 40.63 60.56 40.66V40.65Z" fill="#007AAB"/>
<g id="Group_2">
<path id="Vector_10" d="M40.74 69.76L38.09 67.11L32.35 74.14C32.81 74.42 33.2 74.79 33.5 75.24L40.74 69.77V69.76Z" fill="#35B6AA"/>
<path id="Vector_11" d="M19.03 75.31V79.06L27.07 77.94C27.02 77.7 26.99 77.45 26.99 77.19C26.99 76.82 27.05 76.47 27.15 76.13L19.03 75.31Z" fill="#35B6AA"/>
<path id="Vector_12" d="M34.08 77.18C34.08 77.51 34.04 77.82 33.95 78.12L41.87 79.22V75.47L33.96 76.27C34.04 76.56 34.08 76.85 34.08 77.18Z" fill="#35B6AA"/>
<path id="Vector_13" d="M28.66 64.43L29.95 73.69C30.14 73.66 30.34 73.64 30.53 73.64C30.85 73.64 31.16 73.68 31.46 73.76L32.4 64.43H28.65H28.66Z" fill="#35B6AA"/>
<path id="Vector_14" d="M20.38 69.76L27.59 75.21C27.89 74.76 28.29 74.39 28.75 74.12L23.03 67.11L20.38 69.76Z" fill="#35B6AA"/>
<path id="Vector_15" d="M80.44 71.85C80.24 71.66 79.99 71.49 79.7 71.35C79.41 71.21 79.07 71.1 78.68 71.02L78.28 70.93V69.33C78.49 69.36 78.68 69.42 78.82 69.53C79.02 69.68 79.13 69.9 79.16 70.18H80.95C80.95 69.7 80.82 69.27 80.58 68.91C80.34 68.54 79.99 68.26 79.55 68.06C79.19 67.89 78.76 67.81 78.29 67.78V66.89H77.67V67.78C77.21 67.81 76.79 67.89 76.42 68.05C75.96 68.25 75.6 68.53 75.34 68.89C75.08 69.25 74.95 69.67 74.95 70.15C74.95 70.74 75.14 71.2 75.53 71.55C75.92 71.89 76.44 72.14 77.12 72.3L77.68 72.43V74.13C77.52 74.11 77.38 74.08 77.25 74.02C77.04 73.94 76.88 73.81 76.76 73.64C76.64 73.47 76.57 73.27 76.56 73.02H74.77C74.77 73.63 74.91 74.13 75.18 74.52C75.45 74.92 75.82 75.21 76.3 75.41C76.7 75.57 77.17 75.65 77.68 75.68V76.58H78.3V75.69C78.81 75.66 79.27 75.59 79.65 75.43C80.11 75.24 80.46 74.97 80.7 74.62C80.94 74.27 81.07 73.85 81.07 73.36C81.07 73.05 81.01 72.77 80.91 72.52C80.81 72.27 80.65 72.05 80.45 71.86L80.44 71.85ZM77.66 70.77C77.66 70.77 77.57 70.75 77.54 70.74C77.4 70.69 77.28 70.63 77.18 70.56C77.08 70.49 77 70.42 76.95 70.33C76.9 70.24 76.88 70.14 76.88 70.02C76.88 69.88 76.92 69.75 77 69.64C77.08 69.53 77.2 69.44 77.36 69.38C77.45 69.35 77.54 69.32 77.65 69.31V70.77H77.66ZM79.01 73.76C78.91 73.88 78.78 73.98 78.6 74.04C78.51 74.07 78.39 74.07 78.28 74.09V72.57C78.4 72.61 78.52 72.65 78.61 72.69C78.79 72.77 78.93 72.86 79.02 72.96C79.11 73.07 79.15 73.19 79.16 73.34C79.16 73.5 79.11 73.63 79.01 73.76Z" fill="#35B6AA"/>
<path id="Vector_16" d="M81.7 76.77H83.28L85.77 67.49H84.19L81.7 76.77Z" fill="#35B6AA"/>
<path id="Vector_17" d="M96.71 67.85L95.54 72.94H95.47L94.14 67.85H92.45L91.12 72.93H91.05L89.88 67.85H87.81L90.07 75.6H91.87L93.26 70.9H93.33L94.72 75.6H96.53L98.78 67.85H96.71Z" fill="#35B6AA"/>
<path id="Vector_18" d="M72.6 71.85C72.4 71.66 72.15 71.49 71.86 71.35C71.57 71.21 71.23 71.1 70.84 71.02L70.44 70.93V69.33C70.65 69.36 70.84 69.42 70.98 69.53C71.18 69.68 71.29 69.9 71.32 70.18H73.11C73.11 69.7 72.98 69.27 72.74 68.91C72.49 68.54 72.15 68.26 71.71 68.06C71.35 67.89 70.92 67.81 70.45 67.78V66.89H69.83V67.78C69.37 67.81 68.95 67.89 68.58 68.05C68.12 68.25 67.76 68.53 67.5 68.89C67.24 69.25 67.11 69.67 67.11 70.15C67.11 70.74 67.3 71.2 67.69 71.55C68.08 71.89 68.6 72.14 69.28 72.3L69.84 72.43V74.13C69.68 74.11 69.54 74.08 69.41 74.02C69.2 73.94 69.04 73.81 68.92 73.64C68.8 73.47 68.73 73.27 68.72 73.02H66.93C66.93 73.63 67.08 74.13 67.34 74.52C67.61 74.92 67.98 75.21 68.46 75.41C68.86 75.57 69.33 75.65 69.84 75.68V76.58H70.46V75.69C70.97 75.66 71.43 75.59 71.81 75.43C72.27 75.24 72.62 74.97 72.86 74.62C73.1 74.27 73.23 73.85 73.23 73.36C73.23 73.05 73.17 72.77 73.07 72.52C72.97 72.27 72.81 72.05 72.61 71.86L72.6 71.85ZM69.82 70.77C69.82 70.77 69.73 70.75 69.7 70.74C69.56 70.69 69.44 70.63 69.34 70.56C69.24 70.49 69.16 70.42 69.11 70.33C69.06 70.24 69.03 70.14 69.04 70.02C69.04 69.88 69.08 69.75 69.16 69.64C69.24 69.53 69.36 69.44 69.52 69.38C69.61 69.35 69.7 69.32 69.81 69.31V70.77H69.82ZM71.17 73.76C71.07 73.88 70.94 73.98 70.76 74.04C70.67 74.07 70.55 74.07 70.44 74.09V72.57C70.56 72.61 70.67 72.65 70.77 72.69C70.95 72.77 71.09 72.86 71.18 72.96C71.27 73.07 71.31 73.19 71.32 73.34C71.32 73.5 71.27 73.63 71.17 73.76Z" fill="#35B6AA"/>
<path id="Vector_19" d="M59.34 71.16L57.42 71.49L57.73 65.49C57.73 65.34 57.64 65.2 57.49 65.17C57.34 65.14 57.19 65.21 57.13 65.35L53.79 73.18C53.74 73.29 53.76 73.41 53.83 73.5C53.9 73.59 54.02 73.63 54.13 73.62L56.07 73.29L55.24 78.12C55.21 78.27 55.3 78.42 55.44 78.47C55.48 78.48 55.51 78.49 55.55 78.49C55.66 78.49 55.77 78.43 55.82 78.33L59.67 71.63C59.73 71.52 59.72 71.39 59.65 71.29C59.58 71.19 59.46 71.14 59.34 71.16Z" fill="#35B6AA"/>
</g>
</g>
<path id="Vector_20" d="M30.49 116.82C29.39 116.79 28.53 115.88 28.56 114.78C28.59 113.68 29.5 112.82 30.6 112.85L52.59 110.37L53.49 110.27C55.27 110.32 56.66 111.8 56.62 113.57C56.57 115.22 55.29 116.55 53.68 116.69H53.32L30.62 116.83H30.51L30.49 116.82Z" fill="#7F4D32"/>
<path id="Vector_21" d="M36.76 109.81V118.83C36.76 118.83 86.89 119.5 92.98 118.83C98.91 118.18 98.32 94.17 98.32 94.17L87.68 98.25C87.68 98.25 82.2 101.9 81.88 104L81.56 106.1L36.76 109.81Z" fill="#CA6F20"/>
<path id="Vector_22" d="M53.98 117.8C53.33 118.68 52.08 118.87 51.2 118.22C50.32 117.57 50.13 116.32 50.78 115.44L61.31 95.98L61.74 95.19C62.8 93.76 64.81 93.46 66.24 94.51C67.57 95.49 67.92 97.31 67.11 98.71L66.91 99.01L54.04 117.71L53.97 117.8H53.98Z" fill="#7F4D32"/>
<path id="Vector_23" d="M28.17 118.04L26.71 102.07C26.68 101.69 26.95 101.35 27.33 101.32L28.18 101.24C28.84 101.18 29.48 101.54 29.77 102.14C30.52 103.69 32 106.66 33 108.34C33.93 109.91 34.59 110.85 34.92 111.29C35.07 111.49 35.1 111.76 34.99 112L34.83 112.35C34.69 112.65 34.37 112.8 34.05 112.73C33.68 112.64 33.31 112.87 33.23 113.24L33.05 114C32.95 114.44 33.04 114.91 33.3 115.28L34.01 116.29C34.31 116.72 34.51 118.16 34.01 118.35C33.39 118.59 29.46 118.59 28.92 118.65C28.54 118.69 28.21 118.41 28.17 118.03V118.04ZM59.27 118.74C59.27 118.14 59.23 117.22 59.09 116.13C58.96 115.11 58.71 114.13 58.51 113.42C58.35 112.86 57.7 112.6 57.18 112.89L55.99 113.57C55.55 113.82 55.03 113.87 54.55 113.71L53.73 113.44C53.33 113.31 53.11 112.88 53.25 112.48C53.36 112.14 53.22 111.77 52.91 111.58L52.54 111.36C52.3 111.22 51.99 111.22 51.75 111.36C51.22 111.68 50.13 112.31 48.29 113.18C46.33 114.11 42.9 115.44 41.11 116.12C40.41 116.38 39.95 117.05 39.95 117.79V118.73C39.95 119.15 40.29 119.49 40.72 119.49H58.51C58.93 119.49 59.28 119.15 59.28 118.73L59.27 118.74Z" fill="white"/>
<path id="Vector_24" d="M84.53 87.23L81.29 98.05C80.85 97.71 80.34 97.45 79.75 97.29C79.42 97.03 79.04 96.83 78.65 96.66C78.25 96.26 77.75 95.94 77.18 95.71L80.26 87.44L84.53 87.22V87.23ZM96.32 73.38L96.49 70.02C97.96 69.14 99.12 67.8 99.6 66.02C99.71 66.24 99.9 66.4 100.13 66.45C100.58 66.54 101.03 66.19 101.14 65.66C101.25 65.13 100.98 64.62 100.53 64.53C100.27 64.48 100.01 64.57 99.81 64.76C99.81 64.72 99.81 64.68 99.81 64.63C100.04 60.93 97.87 58.51 95 58.51C92.13 58.51 90.24 61.54 89.8 65.21C89.38 68.67 90.22 71.2 92.07 71.2C92.14 71.2 92.21 71.2 92.28 71.2L91.43 73.66C90.76 73.72 88.04 73.5 85.03 75.63C84.78 75.81 84.53 76.06 84.28 76.38C87.32 77.19 89.25 79.15 92.67 79.22C94.53 79.26 96.19 78.89 97.96 78.4C98.54 78.21 99.13 78.04 99.71 77.88C99.85 77.82 99.98 77.77 100.09 77.73C100.32 76.93 100.7 76.29 101.17 75.8C98.83 74.34 96.29 73.38 96.29 73.38H96.32ZM107.11 84.7L114.2 115.43C114.25 115.61 114.4 115.73 114.58 115.76C115.72 115.89 119.46 116.54 119.49 117.87V118.7H111.74C111.19 118.75 110.69 118.41 110.54 117.88L102.07 87.5L107.11 84.7Z" fill="#7F4D32"/>
<path id="Vector_25" d="M89.04 94.34L84.3 101C84.3 101 72.61 90.59 67.1 91.55C60.55 92.68 52.39 108.72 52.39 108.72L62.94 113.54L68.64 100.35C68.64 100.35 78.76 119.02 92.99 119.02C104.95 119.02 101.22 94.36 101.22 94.36L89.04 94.34Z" fill="#CA6F20"/>
<path id="Vector_26" d="M110.24 90.86C110.24 90.86 105.68 79.12 103.42 77.44C101.16 75.77 100.62 75.45 100.62 75.45L97.6 73.92C97.6 73.92 94.28 77.39 91.19 76.85C88.1 76.32 88.29 74.16 88.29 74.16L86.56 74.64L85.28 75.46C84.95 75.69 84.61 76.02 84.29 76.42L80.01 85.61C78.79 88.36 77.4 90.42 77.4 90.42L83.6 95.73L84.13 94.36C84.19 97.9 84.3 101.03 84.3 101.03L89.71 102.53L102.03 105.95L101.56 98.24L101.17 91.78L100.97 85.67L103.18 94.95L110.25 90.88L110.24 90.86Z" fill="white"/>
<g id="Group_3">
<path id="Vector_27" d="M114.7 115.32L109.31 91.97L110.49 91.29C110.7 91.17 110.79 90.91 110.7 90.68C110.23 89.46 106.03 78.75 103.72 77.04C101.82 75.64 101.13 75.18 100.94 75.06C100.93 75.06 100.91 75.04 100.9 75.04C100.89 75.04 100.88 75.03 100.88 75.02C100.88 75.02 100.87 75.02 100.86 75.01H100.84C99.18 74.03 97.55 73.34 96.86 73.06L97 70.29C98.29 69.45 99.31 68.28 99.87 66.88C99.93 66.91 100 66.92 100.06 66.94C100.41 67.01 100.79 66.92 101.1 66.68C101.38 66.46 101.58 66.13 101.66 65.76C101.74 65.39 101.69 65.01 101.52 64.69C101.47 64.59 101.4 64.51 101.33 64.43C101.38 64.32 101.43 64.22 101.48 64.11C101.49 64.08 101.5 64.05 101.51 64.01C101.69 63.03 101.68 62.12 101.53 61.3C101.81 61.27 102.06 61.14 102.27 61.03C102.39 60.96 102.56 60.87 102.64 60.86C102.69 60.84 102.88 60.92 103.01 60.97C103.32 61.09 103.71 61.24 104.11 61.08C104.49 60.93 104.68 60.57 104.82 60.28C104.89 60.14 104.97 59.98 105.04 59.93C105.11 59.88 105.29 59.84 105.44 59.8C105.76 59.73 106.15 59.63 106.39 59.3C106.64 58.95 106.59 58.54 106.55 58.21C106.53 58.07 106.51 57.89 106.53 57.82C106.55 57.75 106.68 57.61 106.78 57.5C107 57.25 107.28 56.95 107.28 56.53C107.28 56.1 107 55.8 106.77 55.55C106.67 55.44 106.55 55.31 106.52 55.23C106.5 55.16 106.52 54.98 106.52 54.85C106.55 54.51 106.59 54.09 106.32 53.74C106.05 53.39 105.63 53.33 105.29 53.28C105.16 53.26 104.98 53.23 104.92 53.2C104.85 53.16 104.75 53.01 104.67 52.89C104.48 52.61 104.25 52.26 103.84 52.16C103.44 52.06 103.07 52.26 102.78 52.42C102.65 52.49 102.49 52.58 102.41 52.59C102.34 52.59 102.17 52.53 102.04 52.48C101.73 52.36 101.34 52.21 100.94 52.37C100.56 52.52 100.37 52.88 100.23 53.17C100.16 53.31 100.08 53.47 100.01 53.53C99.94 53.59 99.76 53.62 99.61 53.66C99.29 53.73 98.9 53.83 98.66 54.16C98.41 54.51 98.46 54.92 98.5 55.26C98.52 55.39 98.54 55.58 98.52 55.65C98.5 55.72 98.37 55.87 98.27 55.97C98.05 56.22 97.77 56.52 97.77 56.94C97.77 57.24 97.91 57.47 98.06 57.67C96.97 57.47 95.97 57.6 95.08 58.05C95.08 58.05 95.06 58.05 95.05 58.05C92.16 58.05 89.87 60.92 89.36 65.19C89.05 67.76 89.42 69.85 90.37 70.92C90.73 71.32 91.17 71.58 91.65 71.68L91.12 73.2H91.11C90.88 73.2 90.57 73.22 90.21 73.25C89.68 73.25 89.08 73.37 88.47 73.55C87.64 73.76 86.7 74.12 85.71 74.69C85.33 74.89 85.07 75.03 85.03 75.06C82.25 76.96 79.67 85.13 79.59 85.42C78.4 88.09 77.04 90.13 77.03 90.15C76.89 90.36 76.93 90.64 77.12 90.8L78.19 91.72L77.03 94.83C73.58 92.58 69.69 90.63 67.06 91.08C60.89 92.15 53.64 105.38 52.23 108.06L36.77 109.34C36.51 109.36 36.31 109.58 36.31 109.83V111.72L35.58 111.8C35.6 111.52 35.53 111.24 35.36 111.01C35.05 110.6 34.4 109.67 33.47 108.1C32.49 106.45 31.04 103.52 30.26 101.93C29.88 101.14 29.03 100.67 28.18 100.75L27.33 100.83C26.68 100.89 26.2 101.47 26.26 102.12L27.72 118.09C27.75 118.41 27.9 118.7 28.15 118.9C28.36 119.08 28.62 119.17 28.9 119.17C28.94 119.17 28.98 119.17 29.02 119.17C29.17 119.15 29.61 119.14 30.17 119.13C32.53 119.07 33.81 119.01 34.25 118.84C34.43 118.77 34.67 118.6 34.79 118.2C34.87 117.94 34.88 117.62 34.85 117.3H36.33V118.85C36.33 119.12 36.55 119.34 36.82 119.35C37.08 119.35 38.11 119.37 39.71 119.39C39.93 119.76 40.32 120.02 40.78 120.02H58.57C58.91 120.02 59.23 119.89 59.47 119.65C59.49 119.63 59.49 119.61 59.51 119.59C64.93 119.63 70.63 119.66 75.8 119.66C82.66 119.66 88.56 119.61 91.58 119.46C92.07 119.5 92.56 119.53 93.06 119.53C95.36 119.53 97.28 118.66 98.75 116.95C100.92 114.42 101.85 110.39 102.18 106.42C102.26 106.41 102.34 106.38 102.41 106.32C102.53 106.22 102.6 106.06 102.59 105.9L101.73 91.73L101.63 90.33L102.75 95.05C102.79 95.2 102.89 95.33 103.04 95.39C103.1 95.42 103.17 95.43 103.24 95.43C103.33 95.43 103.41 95.41 103.49 95.36L103.79 95.19L110.15 118.02C110.35 118.73 110.99 119.21 111.67 119.21C111.72 119.21 111.78 119.21 111.83 119.21H119.58C119.71 119.21 119.84 119.16 119.93 119.07C120.02 118.98 120.08 118.85 120.08 118.72V117.88C120.04 116 115.62 115.39 114.78 115.34L114.7 115.32ZM33.83 117.91C33.46 118.05 31.1 118.11 30.09 118.13C29.5 118.14 29.04 118.16 28.87 118.17C28.82 118.19 28.76 118.15 28.74 118.13C28.72 118.11 28.68 118.07 28.67 118L27.21 102.03C27.21 101.92 27.28 101.83 27.38 101.82L28.23 101.74C28.23 101.74 28.3 101.74 28.33 101.74C28.75 101.74 29.14 101.98 29.33 102.37C30.11 103.98 31.58 106.93 32.58 108.61C33.53 110.22 34.21 111.18 34.53 111.61C34.57 111.67 34.58 111.74 34.55 111.81L34.39 112.16C34.35 112.24 34.26 112.29 34.18 112.26C33.87 112.19 33.56 112.24 33.29 112.4C33.02 112.57 32.83 112.83 32.76 113.14L32.58 113.9C32.45 114.48 32.56 115.09 32.91 115.58L33.62 116.59C33.81 116.86 33.91 117.75 33.85 117.9L33.83 117.91ZM36.27 116.29H34.56C34.52 116.2 34.47 116.1 34.42 116.03L33.71 115.02C33.53 114.76 33.47 114.44 33.54 114.13L33.72 113.37C33.74 113.3 33.78 113.26 33.81 113.25C33.84 113.23 33.89 113.21 33.95 113.23C34.38 113.33 34.82 113.17 35.1 112.85L36.28 112.72V116.3L36.27 116.29ZM91.08 70.24C90.33 69.39 90.04 67.54 90.32 65.28C90.67 62.33 92.12 59.37 94.58 59.04C94.72 60.22 95.22 62.36 97.05 63.83C97.83 64.46 98.29 66.5 98.4 67.24C98.4 67.31 98.45 67.36 98.47 67.42C97.1 69.67 94.38 70.71 92.09 70.71C91.69 70.71 91.36 70.56 91.08 70.24ZM91.11 74.17C91.27 74.17 91.4 74.17 91.5 74.15C91.69 74.13 91.86 74 91.92 73.82L92.66 71.67C93.84 71.6 94.95 71.32 95.95 70.85L95.83 73.36C95.82 73.57 95.95 73.77 96.15 73.85C96.16 73.85 96.37 73.94 96.7 74.07C95.68 74.97 93.38 76.73 91.26 76.36C89.28 76.02 88.87 74.96 88.79 74.46C89.8 74.22 90.62 74.18 91.11 74.17ZM78.95 92.39L81.75 94.79L80.91 97.6C79.98 96.89 78.95 96.13 77.84 95.37L78.95 92.38V92.39ZM82.58 95.49L83.28 96.09C83.37 96.17 83.49 96.21 83.6 96.21C83.62 96.21 83.65 96.21 83.67 96.21C83.7 97.72 83.74 99.03 83.77 99.9C83.27 99.48 82.58 98.91 81.75 98.26L82.58 95.5V95.49ZM39.45 117.8V118.38C38.47 118.37 37.7 118.36 37.26 118.35V110.27L52.02 109.05C52.07 109.1 52.12 109.15 52.18 109.18L53.33 109.7L52.68 110.9C52.3 110.72 51.85 110.73 51.48 110.95C51 111.24 49.92 111.87 48.07 112.75C46.13 113.67 42.76 114.97 40.93 115.67C40.05 116.01 39.45 116.86 39.45 117.8ZM58.69 118.93C58.64 118.98 58.57 119.01 58.5 119.01H40.71C40.56 119.01 40.44 118.89 40.44 118.75V117.81C40.44 117.27 40.77 116.8 41.28 116.61C43.13 115.91 46.52 114.6 48.5 113.66C50.39 112.76 51.51 112.12 52 111.81C52.04 111.78 52.09 111.77 52.14 111.77C52.19 111.77 52.24 111.78 52.28 111.81L52.65 112.03C52.7 112.06 52.74 112.1 52.76 112.15C52.76 112.15 52.76 112.16 52.76 112.17C52.78 112.22 52.78 112.28 52.76 112.33C52.65 112.65 52.68 112.99 52.83 113.29C52.98 113.59 53.24 113.82 53.56 113.92L54.38 114.19C54.99 114.39 55.67 114.33 56.22 114.01L57.41 113.33C57.52 113.27 57.66 113.26 57.78 113.31C57.85 113.34 57.97 113.41 58.02 113.57C58.21 114.22 58.46 115.2 58.59 116.21C58.73 117.3 58.76 118.2 58.77 118.76C58.77 118.85 58.72 118.91 58.69 118.94V118.93ZM53.49 111.47L54.22 110.12L57.56 111.64L56.94 112.46C56.94 112.46 56.94 112.46 56.93 112.46L55.74 113.14C55.43 113.32 55.05 113.36 54.7 113.24L53.88 112.97C53.81 112.95 53.76 112.9 53.72 112.84C53.68 112.78 53.68 112.71 53.71 112.64C53.85 112.23 53.76 111.79 53.5 111.46L53.49 111.47ZM59.75 118.58C59.75 117.99 59.7 117.12 59.57 116.07C59.43 114.99 59.17 113.96 58.97 113.28C58.86 112.89 58.58 112.58 58.22 112.41L58.48 112.06L62.71 113.99C62.83 114.05 62.97 114.05 63.09 114C63.21 113.95 63.31 113.86 63.37 113.73L65.89 107.89L72.78 107.32C73.48 108.2 74.25 109.1 75.09 110.01C79.04 114.28 83.19 117.17 87.34 118.56C80.71 118.68 69.77 118.64 59.74 118.56L59.75 118.58ZM66.35 106.87L68.69 101.45C69.3 102.47 70.46 104.3 72.07 106.4L66.35 106.87ZM97.92 116.29C96.64 117.77 94.98 118.53 92.98 118.53C79.21 118.53 69.16 100.3 69.06 100.12C68.97 99.96 68.81 99.86 68.62 99.86C68.62 99.86 68.61 99.86 68.6 99.86C68.41 99.86 68.24 99.98 68.17 100.16L62.67 112.89L53.06 108.5C54.45 105.89 61.55 93.02 67.17 92.05C72.38 91.14 83.84 101.28 83.96 101.39C84.02 101.44 84.08 101.47 84.15 101.49L101.1 106.19C100.8 110.04 99.94 113.93 97.91 116.29H97.92ZM103.49 94.17L101.12 84.19C101.06 83.94 100.82 83.77 100.56 83.81C100.3 83.85 100.12 84.08 100.14 84.33L100.66 91.78L101.48 105.25L84.77 100.62C84.71 98.71 84.45 89.83 84.62 86.08C84.74 83.3 85.2 81.47 85.57 80C85.69 79.54 85.79 79.11 85.87 78.72C85.92 78.45 85.75 78.19 85.48 78.14C85.22 78.08 84.95 78.26 84.9 78.53C84.82 78.91 84.72 79.32 84.61 79.77C84.25 81.2 83.76 83.16 83.63 86.04C83.54 87.97 83.57 91.25 83.63 94.25L83.39 94.88L78.05 90.31C78.51 89.59 79.53 87.89 80.48 85.75C80.51 85.67 83.06 77.56 85.52 75.88C85.54 75.87 86.62 75.26 87.85 74.78C88.04 75.6 88.71 76.93 91.09 77.34C91.34 77.38 91.59 77.4 91.84 77.4C94.41 77.4 96.88 75.28 97.68 74.52L100.37 75.89C100.46 75.95 101.07 76.33 103.11 77.85C104.8 79.1 108.23 87.16 109.6 90.65L103.48 94.18L103.49 94.17ZM119 118.21H111.69C111.39 118.25 111.1 118.05 111.02 117.75L104.59 94.68L108.4 92.49L113.73 115.57C113.83 115.94 114.15 116.21 114.53 116.25C116.86 116.52 118.99 117.3 119 117.87V118.21Z" fill="#292929"/>
<path id="Vector_28" d="M91.12 82.89C90.42 82.89 89.86 83.46 89.86 84.15C89.86 84.84 90.43 85.41 91.12 85.41C91.81 85.41 92.38 84.84 92.38 84.15C92.38 83.46 91.81 82.89 91.12 82.89ZM91.12 84.43C90.97 84.43 90.85 84.31 90.85 84.16C90.85 84.01 90.97 83.89 91.12 83.89C91.27 83.89 91.39 84.01 91.39 84.16C91.39 84.31 91.27 84.43 91.12 84.43Z" fill="#292929"/>
<path id="Vector_29" d="M91.47 78.63C90.77 78.63 90.21 79.2 90.21 79.89C90.21 80.58 90.78 81.15 91.47 81.15C92.16 81.15 92.73 80.58 92.73 79.89C92.73 79.2 92.16 78.63 91.47 78.63ZM91.2 79.89C91.2 79.74 91.32 79.62 91.47 79.62C91.62 79.62 91.74 79.74 91.74 79.89C91.74 80.19 91.19 80.19 91.19 79.89H91.2Z" fill="#292929"/>
<path id="Vector_30" d="M91.12 87.65C90.42 87.65 89.86 88.22 89.86 88.91C89.86 89.6 90.43 90.17 91.12 90.17C91.81 90.17 92.38 89.6 92.38 88.91C92.38 88.22 91.81 87.65 91.12 87.65ZM91.12 89.19C90.97 89.19 90.85 89.07 90.85 88.92C90.85 88.77 90.97 88.65 91.12 88.65C91.27 88.65 91.39 88.77 91.39 88.92C91.39 89.07 91.27 89.19 91.12 89.19Z" fill="#292929"/>
</g>
</g>
<defs>
<clipPath id="clip0_355_4820">
<rect width="120" height="120" fill="white"/>
</clipPath>
</defs>
</svg>
