<svg width="72" height="72" viewBox="0 0 72 72" fill="none" xmlns="http://www.w3.org/2000/svg">
<circle cx="36" cy="36" r="36" fill="#FAFAFA"/>
<g clip-path="url(#clip0_1471_42718)">
<path d="M35.85 21.53C35.38 21.53 35 21.91 35 22.38V34.83C35 35.17 35.2 35.48 35.52 35.61L41.91 38.32C42.02 38.36 42.13 38.39 42.24 38.39C42.57 38.39 42.89 38.19 43.02 37.87C43.2 37.44 43 36.94 42.57 36.76L36.69 34.27V22.39C36.69 21.92 36.31 21.54 35.84 21.54L35.85 21.53Z" fill="#CA6F20"/>
<path d="M52.3299 48.96C51.1699 48.94 50.2199 48.08 50.2199 47.03C50.2199 45.98 51.1799 45.1 52.3599 45.1C53.5399 45.1 54.4999 45.97 54.4999 47.03C54.4999 47.5 54.8799 47.88 55.3499 47.88C55.8199 47.88 56.1999 47.5 56.1999 47.03C56.1999 45.27 54.8599 43.8 53.0999 43.47V40.93C53.0999 40.46 52.7199 40.08 52.2499 40.08C51.7799 40.08 51.3999 40.46 51.3999 40.93V43.53C49.7499 43.93 48.5199 45.34 48.5199 47.03C48.5199 49 50.2199 50.63 52.3599 50.66C53.7499 50.66 54.8899 51.69 54.8899 52.95C54.8899 54.21 53.7599 55.24 52.3599 55.24C50.9599 55.24 49.8299 54.21 49.8299 52.95C49.8299 52.48 49.4499 52.1 48.9799 52.1C48.5099 52.1 48.1299 52.48 48.1299 52.95C48.1299 54.84 49.5299 56.41 51.3999 56.82V59.44C51.3999 59.91 51.7799 60.29 52.2499 60.29C52.7199 60.29 53.0999 59.91 53.0999 59.44V56.86C55.0799 56.53 56.5799 54.9 56.5799 52.95C56.5799 50.75 54.6799 48.96 52.3199 48.96H52.3299Z" fill="#CA6F20"/>
<path d="M53.45 17.33C53.45 17.33 53.43 17.29 53.42 17.28C53.41 17.27 53.38 17.26 53.37 17.25C48.87 12.77 42.68 10 35.85 10C29.02 10 22.95 12.63 18.31 17.26C18.31 17.26 18.29 17.27 18.28 17.28C18.27 17.29 18.27 17.3 18.26 17.31C17.77 17.81 17.29 18.32 16.83 18.86C13.07 23.32 11 29 11 34.85C11 41.68 13.77 47.87 18.24 52.37C18.25 52.39 18.26 52.41 18.28 52.43C18.3 52.45 18.32 52.45 18.34 52.47C22.84 56.94 29.03 59.71 35.86 59.71C38.44 59.71 40.99 59.32 43.43 58.54C43.88 58.4 44.12 57.92 43.98 57.47C43.84 57.02 43.36 56.78 42.91 56.92C40.91 57.56 38.82 57.9 36.71 57.98V54.36C36.71 53.89 36.33 53.51 35.86 53.51C35.39 53.51 35.01 53.89 35.01 54.36V57.99C29.27 57.78 24.05 55.47 20.11 51.81L22.64 49.28C22.97 48.95 22.97 48.41 22.64 48.08C22.31 47.75 21.77 47.75 21.44 48.08L18.91 50.61C15.25 46.67 12.94 41.46 12.73 35.71H16.31C16.78 35.71 17.16 35.33 17.16 34.86C17.16 34.39 16.78 34.01 16.31 34.01H12.74C12.93 28.87 14.81 23.91 18.13 19.96C18.38 19.67 18.63 19.38 18.89 19.1L21.43 21.64C21.6 21.81 21.81 21.89 22.03 21.89C22.25 21.89 22.47 21.81 22.63 21.64C22.96 21.31 22.96 20.77 22.63 20.44L20.1 17.91C24.16 14.14 29.43 11.94 35 11.74V15.32C35 15.79 35.38 16.17 35.85 16.17C36.32 16.17 36.7 15.79 36.7 15.32V11.72C42.44 11.93 47.66 14.24 51.6 17.9L49.07 20.43C48.74 20.76 48.74 21.3 49.07 21.63C49.24 21.8 49.45 21.88 49.67 21.88C49.89 21.88 50.11 21.8 50.27 21.63L52.8 19.1C56.46 23.04 58.77 28.25 58.98 34H55.4C54.93 34 54.55 34.38 54.55 34.85C54.55 35.32 54.93 35.7 55.4 35.7H58.97C58.93 36.86 58.82 38.01 58.61 39.14C58.52 39.6 58.83 40.05 59.29 40.13C59.75 40.21 60.2 39.91 60.28 39.45C60.56 37.94 60.7 36.39 60.7 34.85C60.7 28.02 57.93 21.83 53.45 17.33Z" fill="#CA6F20"/>
</g>
<defs>
<clipPath id="clip0_1471_42718">
<rect width="49.7" height="50.29" fill="white" transform="translate(11 10)"/>
</clipPath>
</defs>
</svg>
