<svg width="72" height="72" viewBox="0 0 72 72" fill="none" xmlns="http://www.w3.org/2000/svg">
<g clip-path="url(#clip0_1471_42730)">
<circle cx="36" cy="36" r="36" fill="#FAFAFA"/>
<g clip-path="url(#clip1_1471_42730)">
<path d="M61.8264 19.5013L36.3294 9.66375C36.117 9.57876 35.8939 9.57876 35.6814 9.66375L10.1738 19.5013C9.8232 19.6288 9.6001 19.9794 9.6001 20.3619C9.62135 21.1374 10.3438 39.6333 35.3945 62.1663C35.5645 62.3256 35.7876 62.4 36.0001 62.4C36.2126 62.4 36.4357 62.3256 36.6056 62.1663L37.3599 61.4864C61.6777 39.2509 62.3788 21.1268 62.4001 20.3619C62.4001 19.9794 62.177 19.6394 61.8264 19.5013ZM36.1488 60.1478L36.0001 60.2753C23.6447 49.0141 17.621 38.8259 14.7314 32.2286C12.2348 26.5024 11.608 22.4335 11.4593 20.9355L36.0001 11.4698L60.5409 20.9355C60.1904 24.282 57.4069 40.6957 36.1382 60.1371L36.1488 60.1478Z" fill="#CA6F20"/>
<path d="M31.0071 31.1024C30.6353 30.7731 30.0616 30.7944 29.7323 31.1768C29.5729 31.3468 29.4985 31.5699 29.4985 31.7824C29.4985 32.0267 29.5941 32.2711 29.796 32.4517L34.088 36.3081C34.258 36.4568 34.4704 36.5418 34.6935 36.5418C34.9166 36.5418 35.1504 36.4568 35.3203 36.2868L45.0304 26.9167C45.2111 26.7361 45.3067 26.5024 45.3067 26.2686C45.3067 26.0349 45.2217 25.8118 45.0517 25.6418C44.7117 25.2806 44.1274 25.27 43.7768 25.6206L34.6723 34.4064L30.9965 31.1131L31.0071 31.1024Z" fill="#CA6F20"/>
</g>
</g>
<defs>
<clipPath id="clip0_1471_42730">
<rect width="72" height="72" fill="white"/>
</clipPath>
<clipPath id="clip1_1471_42730">
<rect width="52.8" height="52.8" fill="white" transform="translate(9.6001 9.60001)"/>
</clipPath>
</defs>
</svg>
