<svg width="72" height="72" viewBox="0 0 72 72" fill="none" xmlns="http://www.w3.org/2000/svg">
<g clip-path="url(#clip0_1471_42724)">
<circle cx="36" cy="36" r="36" fill="#FAFAFA"/>
<g clip-path="url(#clip1_1471_42724)">
<path d="M58.22 23.07H53.21C54.74 22.1 55.76 20.4 55.76 18.46C55.76 15.45 53.31 13 50.3 13C47.29 13 44.84 15.45 44.84 18.46C44.84 20.4 45.86 22.1 47.39 23.07H23.69C25.22 22.1 26.24 20.4 26.24 18.46C26.24 15.45 23.79 13 20.78 13C17.77 13 15.32 15.45 15.32 18.46C15.32 20.4 16.34 22.1 17.87 23.07H12.85C12.38 23.07 12 23.45 12 23.92C12 24.39 12.38 24.77 12.85 24.77H34.69L34.76 39.03C34.76 45.75 30.44 55.57 25.09 57.67C24.71 57.82 24.49 58.22 24.57 58.62C24.65 59.02 25 59.31 25.4 59.31H45.68C46.09 59.31 46.44 59.02 46.51 58.62C46.58 58.22 46.37 57.82 45.99 57.67C40.62 55.56 36.46 45.91 36.46 39.03L36.39 24.77H58.22C58.69 24.77 59.07 24.39 59.07 23.92C59.07 23.45 58.69 23.07 58.22 23.07ZM50.29 14.7C52.36 14.7 54.05 16.39 54.05 18.46C54.05 20.53 52.36 22.22 50.29 22.22C48.22 22.22 46.53 20.53 46.53 18.46C46.53 16.39 48.22 14.7 50.29 14.7ZM20.77 14.7C22.84 14.7 24.53 16.39 24.53 18.46C24.53 20.53 22.84 22.22 20.77 22.22C18.7 22.22 17.01 20.53 17.01 18.46C17.01 16.39 18.7 14.7 20.77 14.7ZM42.63 57.61H28.42C31.83 54.8 34.34 49.73 35.58 45.03C36.78 49.77 39.23 54.81 42.63 57.61Z" fill="#CA6F20"/>
</g>
</g>
<defs>
<clipPath id="clip0_1471_42724">
<rect width="72" height="72" fill="white"/>
</clipPath>
<clipPath id="clip1_1471_42724">
<rect width="47.07" height="46.31" fill="white" transform="translate(12 13)"/>
</clipPath>
</defs>
</svg>
